<svg width="436" height="304" viewBox="0 0 436 304" fill="none" xmlns="http://www.w3.org/2000/svg">
<path d="M161 39C106 55 121 117 86 101C51 85 82 111 26 101C-30 91 25 154 26 172C27 190 61 243 78 256C95 269 126 292 148 288C170 284 214 302 252 302C290 302 314 295 322 302C330 309 459 256 380 256C301 256 362 240 416 230C470 220 386 183 422 154C458 125 399 124 422 101C445 78 439.307 60.9887 372 48C304.693 35.0113 326 38 330 18C334 -2.00001 286 -2 252 8C218 18 216 23 161 39Z" stroke="black"/>
</svg>
