<svg width="444" height="341" viewBox="0 0 444 341" fill="none" xmlns="http://www.w3.org/2000/svg">
<path d="M31.0001 129C48.3074 109.178 -50.2923 96.1459 38.0001 58C38.0001 58 42.0001 5.99999 56.0001 14C70.0001 22 155 32 168 9C181 -14 246.444 19.4322 233 32C219.556 44.5678 150 177 188 193C226 209 291 78 274 78C257 78 262 -14 285 9C308 32 360 78 390 69C420 60 342 103 372 113C402 123 435 183 435 183C435 183 417 263 435 269C453 275 435 347 425 329C415 311 372 297 372 329C372 361 330 310 315 324C300 338 302 239 215 293C128 347 15 324 38.0001 299C61.0003 274 31.0001 129 31.0001 129Z" stroke="black"/>
</svg>
