<?xml version="1.0" encoding="utf-8" ?>
<svg baseProfile="full" height="3000" version="1.1" width="3000" xmlns="http://www.w3.org/2000/svg" xmlns:ev="http://www.w3.org/2001/xml-events" xmlns:xlink="http://www.w3.org/1999/xlink"><defs><clipPath clipPathUnits="userSpaceOnUse" id="my_clip_path0"><path d="M145 37C137 12 20 54 20 54C20 54 -15 54 11.0002 72C37.0003 90 112.6 133.8 127 149C145 168 67 160 20 181C-27 202 33 242 41 254C47.4 263.6 69 273 98 288C127 303 126.003 215.869 165 248C168.087 250.544 207 296 314 216C421 136 219.697 134.064 223 94C238.287 -91.3926 153 62 145 37Z" /></clipPath><clipPath clipPathUnits="userSpaceOnUse" id="my_clip_path1"><path d="M316 105C332 81.6667 54 41 21 38C-12 35 56 -15 71 7C86 29 399 7.99998 410 23C421 38 273 190 298 209C323 228 399 345 371 339C343 333 26 309 7.99999 270C-10 231 9.99999 60 26 52C42 44 221 92 316 105Z" /></clipPath><clipPath clipPathUnits="userSpaceOnUse" id="my_clip_path2"><path d="M272 314C262.222 274.605 118.878 136.019 47 170C-24.8782 203.981 31 142 16 135C0.999991 128 -11.0965 -64.2382 24 12.0001C59.0965 88.2384 384.012 64.0504 405 22.0001C425.988 -20.0502 426 340 385 340C344 340 152 354 124 340C96 326 281.777 353.395 272 314Z" /></clipPath><clipPath clipPathUnits="userSpaceOnUse" id="my_clip_path3"><path d="M31.0001 129C48.3074 109.178 -50.2923 96.1459 38.0001 58C38.0001 58 42.0001 5.99999 56.0001 14C70.0001 22 155 32 168 9C181 -14 246.444 19.4322 233 32C219.556 44.5678 150 177 188 193C226 209 291 78 274 78C257 78 262 -14 285 9C308 32 360 78 390 69C420 60 342 103 372 113C402 123 435 183 435 183C435 183 417 263 435 269C453 275 435 347 425 329C415 311 372 297 372 329C372 361 330 310 315 324C300 338 302 239 215 293C128 347 15 324 38.0001 299C61.0003 274 31.0001 129 31.0001 129Z" /></clipPath><clipPath clipPathUnits="userSpaceOnUse" id="my_clip_path4"><path d="M406 286C310.566 248.065 244.057 78.605 339 44C433.943 9.39499 220.501 0.417733 141 1.00001C51.1259 18.5134 8.24314 31.8429 1 88C-2.75064 139.035 66 166 85 145C104 124 57.3565 289.18 148 313C191.148 293.032 187 236 190 204C193 172 306.028 295.617 406 286Z" /></clipPath><clipPath clipPathUnits="userSpaceOnUse" id="my_clip_path5"><path d="M17 111C120.17 153.541 15.2676 285.501 2.00002 342C-11.2676 398.499 321.027 203.893 290 191C295.113 317.718 310.96 311.206 342 283C428.299 154.32 364.859 112.342 335 15C329.582 -35.7739 -86.1698 68.4586 17 111Z" /></clipPath><clipPath clipPathUnits="userSpaceOnUse" id="my_clip_path6"><path d="M63 284C29 269 75 87 29 118C-17 149 2.99999 26 29 33C55 40 77 -4.00001 107 2.99999C137 9.99999 211 26 265 50C319 74 273 13 303 2.99999C333 -7.00001 386 27 407 26C428 25 359 269 359 269C230.938 296.99 368.092 173.987 333 171C297.908 168.013 97 299 63 284Z" /></clipPath><clipPath clipPathUnits="userSpaceOnUse" id="my_clip_path7"><path d="M13.9999 22C9 43 25.9999 222 43.9999 246C61.9999 270 16.6934 223.281 2.99991 253C-10.6936 282.719 60 308 75.9999 301C91.9998 294 137 243 157 235C177 227 157 322 184 313C211 304 293 282 314 288C335 294 328 260 346 241C364 222 225 125 254 107C283 89.0001 346 22 346 22C-17.8473 -11.4562 18.9998 1.00011 13.9999 22Z" /></clipPath><clipPath clipPathUnits="userSpaceOnUse" id="my_clip_path8"><path d="M26 307C-41 342 52 53 32 50C12 47 32 17 58 10C84 3 367 -11 349 23C331 57 292 42 262 57C232 72 438 295 403 316C368 337 93 272 26 307Z" /></clipPath><clipPath clipPathUnits="userSpaceOnUse" id="my_clip_path9"><path d="M44 17C22.4797 105.407 12 169 50 151C88 133 111 159 109 171C107 183 -30 267 7 308C44 349 -0.246674 204.697 368 308C348.801 230.598 65.5203 -71.407 44 17Z" /></clipPath><clipPath clipPathUnits="userSpaceOnUse" id="my_clip_path10"><path d="M110 301C29.7819 197.584 -26 234 29 184C84 134 18 171 9 173C-9.53674e-07 175 -7.99999 9 22 21C52 33 245 3 245 59C245 115 404 -17.8422 426 3C448 23.8422 390 285 364 275C338 265 312 191 302 222C292 253 110 301 110 301Z" /></clipPath><clipPath clipPathUnits="userSpaceOnUse" id="my_clip_path11"><path d="M143 10C88 49 95 111 35 85C-25 59 13 99 13 99C13 99 35 122 54 122C73 122 52 132 24 135C-4 138 35 178 66 162C97 146 108 141 154 122C200 103 2 271 13 315C24 359 266 198 322 261C378 324 443 135 378 99C313 63.0001 198 -29 143 10Z" /></clipPath><clipPath clipPathUnits="userSpaceOnUse" id="my_clip_path12"><path d="M64 41C12 64 48 201 33 217C18 233 -9.99999 223 5.00001 246C20 269 12 296 43 296C74 296 162 356 206 348C250 340 264 312 298 296C332 280 400 318 434 312C468 306 476 284 502 246C528 208 516 98 492 120C468 142 272 103 311 78C350 52.9999 343 36 317 9.99999C291 -16 116 18 64 41Z" /></clipPath><clipPath clipPathUnits="userSpaceOnUse" id="my_clip_path13"><path d="M289 23C296.304 111.685 61.0944 98.8392 45 43C28.9056 -12.8392 24 33 11 43C-2.00001 53 4.99999 141 11 163C17 185 100 209 105 230C110 251 30 235 11 238C-8.00002 241 1.99998 373 31 355C60 337 129 413 155 396C181 379 403 371 404 390C405 409 517 341 554 339C591 337 614 213 630 195C646 177 589 84 554 117C519 150 281.696 -65.6853 289 23Z" /></clipPath><clipPath clipPathUnits="userSpaceOnUse" id="my_clip_path14"><path d="M14 379C118 320 192 93 98 154C4.00003 215 64 61 108 25C152 -11 602 -13 434 70C266 153 669 405 571 372C473 339 -90 438 14 379Z" /></clipPath><clipPath clipPathUnits="userSpaceOnUse" id="my_clip_path15"><path d="M187 1C187 1 102 -1 90 7L114 19C114 19 6 33.0002 1 73.0002C-4 113 164 115 114 147C64 179 90 294 158 263C226 232 364 219 366 193C368 167 401 -30 353 19C305 68 187 1 187 1Z" /></clipPath><clipPath clipPathUnits="userSpaceOnUse" id="my_clip_path16"><path d="M319 44C155 107 151 230 87 242C23 254 -30 311 23 294C76 277 183 256 155 285C127 314 99 334 44 364C-11 394 235 407 274 364C313 321 495 134 510 61C525 -12 483 -19 319 44Z" /></clipPath><clipPath clipPathUnits="userSpaceOnUse" id="my_clip_path17"><path d="M41 30C-17 49 -4.99997 231 33 239C71 247 80 207 92 259C104 311 136 302 201 311C266 320 349 327 420 311C491 295 474 103 415 37C356 -29 99 11 41 30Z" /></clipPath><clipPath clipPathUnits="userSpaceOnUse" id="my_clip_path18"><path d="M49 316C82.011 249.033 149.533 29.5656 56 62C-37.5328 94.4344 7.16021 30.4812 36 27C64.8398 23.5188 398.916 -20.4564 368 14C337.084 48.4564 251 88 308 92C365 96 430 162 401 179C372 196 330 329 289 345C248 361 15.9891 382.967 49 316Z" /></clipPath><clipPath clipPathUnits="userSpaceOnUse" id="my_clip_path19"><path d="M363 15C466.553 -75.4583 363 315 325 297C287 279 209 291 196 271C183 251 162 325 149 324C136 323 155 255 141 271C127 287 41 324 60 297C79 270 82 271 71 263C60 255 41 248 21 243C1.00001 238 49 229 60 216C71 203 -5.99999 193 1.00001 179C8.00001 165 111 119 85 113C59 107 1.00001 134 9.00001 113C17 92 -4.99999 45 21 45C47 45 259.447 105.458 363 15Z" /></clipPath><clipPath clipPathUnits="userSpaceOnUse" id="my_clip_path20"><path d="M505 32C430 -17 -3.99999 -13 1.00001 75C6.00001 163 -2.99998 208 89 264C181 320 199 156 241 152C283 148 279 316 367 328C455 340 581.4 235.8 607 135C632.6 34.2 580 81 505 32Z" /></clipPath><clipPath clipPathUnits="userSpaceOnUse" id="my_clip_path21"><path d="M161 39C106 55 121 117 86 101C51 85 82 111 26 101C-30 91 25 154 26 172C27 190 61 243 78 256C95 269 126 292 148 288C170 284 214 302 252 302C290 302 314 295 322 302C330 309 459 256 380 256C301 256 362 240 416 230C470 220 386 183 422 154C458 125 399 124 422 101C445 78 439.307 60.9887 372 48C304.693 35.0113 326 38 330 18C334 -2.00001 286 -2 252 8C218 18 216 23 161 39Z" /></clipPath><clipPath clipPathUnits="userSpaceOnUse" id="my_clip_path22"><path d="M21 346C-18 292.001 11 203 21 116C31 29.0001 344 -110 253 116C162 342 420 230 262 346C104.505 461.63 60.2827 400.395 21.3745 346.519L21 346Z" /></clipPath><clipPath clipPathUnits="userSpaceOnUse" id="my_clip_path23"><path d="M152 392C101 374 28 305 79 204C130 103 65 213 35 213C5.00003 213 -23 98 35 90C93 82 91 110 112 66C133 22 144 16 179 10C214 4 485 -11 435 21C385 53 400 94 379 149C358 204 504 305 435 314C366 323 203 410 152 392Z" /></clipPath><clipPath clipPathUnits="userSpaceOnUse" id="my_clip_path24"><path d="M25 33C-3.99998 47 75 261 25 277C-25 293 14 323 47 304C80 285 131 192 138 227C145 262 163 316 197 314C231 312 234 305 263 277C292 249 218 9.00001 185 2.00001C152 -4.99999 54 19 25 33Z" /></clipPath><clipPath clipPathUnits="userSpaceOnUse" id="my_clip_path25"><path d="M29 367C68 347 50 67 29 113C8 159 -8.00002 147 7.99999 120C24 93 -5.37447 96.3997 24 58C50.8438 22.9086 81 3.00002 112 3.00002C112 3.00002 268 11 330 3.00002C392 -4.99998 241 153 266 145C291 137 497 31 539 3.00002C581 -25 612 225 566 197C520 169 352.6 261.8 227 377C101.4 492.2 -10 387 29 367Z" /></clipPath><clipPath clipPathUnits="userSpaceOnUse" id="my_clip_path26"><path d="M46 253C-29 184 2.00001 28 46 19C90 9.99999 263 139 245 70C227 0.999992 300 -10 370 9.99999C440 30 388 304 317 253C246 202 121 322 46 253Z" /></clipPath><clipPath clipPathUnits="userSpaceOnUse" id="my_clip_path27"><path d="M361 286C223.163 391.813 140.197 74.6076 98 60C55.8026 45.3923 -23.36 77.3032 8.99994 44C35.4832 -17.5058 3.83895 39.8826 98 38C192.161 36.1174 240.625 -40.8008 361 32C481.375 104.801 498.837 180.187 361 286Z" /></clipPath><clipPath clipPathUnits="userSpaceOnUse" id="my_clip_path28"><path d="M146 12C55 23 70 176 31 194C-8.00003 212 -11 265 38 247C87 229 320 261 347 273C374 285 417 220 365 187C313 154 451 127 427 154C403 181 427 410 485 419C543 428 553 392 587 337C621 282 661 29 582 12C503 -4.99999 237 1.00002 146 12Z" /></clipPath><clipPath clipPathUnits="userSpaceOnUse" id="my_clip_path29"><path d="M27 87.9999C-7.99999 108 -17.5292 300.801 62 248C99.5014 217.093 58.1189 93.4995 191 225C190.273 275.923 228 253 254 308C280 363 460 286 488 302C516 318 502 187 452 193C402 199 574 60 594 19C614 -22 236 19 191 19C146 19 62 67.9999 27 87.9999Z" /></clipPath><clipPath clipPathUnits="userSpaceOnUse" id="my_clip_path30"><path d="M185 44C105.153 88.0798 -72.3496 184 34 154C140.35 124 247.948 329.547 289 339C330.052 348.453 523.932 113.544 471 44C418.068 -25.5436 264.847 -0.0798073 185 44Z" /></clipPath><clipPath clipPathUnits="userSpaceOnUse" id="my_clip_path31"><path d="M110 363C49.0002 415 109.26 70.8341 49.0002 68C-11.2597 65.1658 -22.9963 8.76722 62.0002 17C62.0002 17 315 -9.53674e-07 364 0.999999C413 2 475 75 426 68C377 61 264 121 310 145C356 169 463 471 382 407C301 343 171 311 110 363Z" /></clipPath><clipPath clipPathUnits="userSpaceOnUse" id="my_clip_path32"><path d="M191 8.99999C139 23 47 181 20 210C-6.99999 239 -1.99998 266 17 247C36 228 164 179 118 251C72 323 323.446 206.551 343 215C362.554 223.449 377.155 415.776 465 381C465 381 512 28 444 14C376 -1.04904e-05 243 -5.00001 191 8.99999Z" /></clipPath><clipPath clipPathUnits="userSpaceOnUse" id="my_clip_path33"><path d="M120 8.00001C89 -9 -31 177 8.99998 162C49 147 191 162 163 200C135 238 140 369 182 356C224 343 326 371 361 379C396 387 326 169 361 177C396 185 359.503 269 396 254C432.497 239 509 254 548 254C587 254 512 162 541 162C570 162 589 86 565 80C541 74 548 -27 502 8.00001C456 43 151 25 120 8.00001Z" /></clipPath><clipPath clipPathUnits="userSpaceOnUse" id="my_clip_path34"><path d="M124 20C22 49 22 37 22 85C22 133 -26 183 22 168C70 153 108 239 141 251C174 263 159 175 226 173C293 171 170 289 208 279C246 269 340 265 375 279C410 293 306 106 347 49C388 -8.00001 226 -9.00002 124 20Z" /></clipPath><clipPath clipPathUnits="userSpaceOnUse" id="my_clip_path35"><path d="M45.0001 26C-28 53 -0.99995 376 56.0001 348C113 320 65.0001 424 95.0001 412C125 400 228 376 257 359C286 342 168 205 206 204C244 203 241.725 66.1643 267 26C292.275 -14.1643 118 -1.00002 45.0001 26Z" /></clipPath><clipPath clipPathUnits="userSpaceOnUse" id="my_clip_path36"><path d="M150 9C124 14 28 195 12 214C-3.99999 233 -0.999987 246 12 265C25 284 110 265 106 223C102 181 190 294 191 310C192 326 311 286 328 292C345 298 406 186 394 189C382 192 276 148 304 138C332 128 357 1 340 14C323 27 303 27 282 42C261 57 270 -3 254 1C238 5 176 4 150 9Z" /></clipPath><clipPath clipPathUnits="userSpaceOnUse" id="my_clip_path37"><path d="M342 3.99999C304 -1.00002 105 20 56 3.99999C7.00001 -12 -24 44 28 52C80 60 118 124 102 132C86 140 68 155 48 164C28 173 -9 282 28 269C65 256 176 100 194 139C212 178 374 225 406 239C438 253 380 9 342 3.99999Z" /></clipPath><clipPath clipPathUnits="userSpaceOnUse" id="my_clip_path38"><path d="M233 298C188.612 249.14 66.889 174.784 32 254C-2.889 333.216 -3.99999 242 8 224C20 206 8.00001 55 32 36C56 17 148 -6.61612e-06 193 0.999993C238 1.99999 363 25 385 49C407 73 379.6 108.4 330 198C280.4 287.6 360 206 363 234C366 262 363 312 335 305C307 298 277.388 346.86 233 298Z" /></clipPath><clipPath clipPathUnits="userSpaceOnUse" id="my_clip_path39"><path d="M112 13C75 15 84 88 64 92C44 96 28 124 12 139C-4 154 0 254 12 244C24 234 67 233 80 244C93 255 98 154 119 154C140 154 132 303 158 294C184 285 211 290 230 289C249 288 201 180 191 154C181 128 368 125 388 132C408 139 377 17 366 5.00001C355 -6.99999 149 11 112 13Z" /></clipPath><clipPath clipPathUnits="userSpaceOnUse" id="my_clip_path40"><path d="M4 126C4 126 -14 272 35 267C84 262 77 319 88 291C99 263 158 257 181 262C204 267 185 181 204 191C223 201 326 255 341 234C356 213 406 140 386 117C366 94 378 1 361 11C344 21 151 174 142 126C133 78 88 0 52 1C16 2 4 126 4 126Z" /></clipPath><clipPath clipPathUnits="userSpaceOnUse" id="my_clip_path41"><path d="M106 64C123 64 93 203 106 204C119 205 122 104 135 94C148 84 150 169 158 153C166 137 191 138 203 135C215 132 112 32 140 28C168 24 257 17 267 2C277 -13 380 159 348 153C316 147 136 298 121 318C106 338 41 266 21 272C0.999996 278 -9.00001 64 14 64H106Z" /></clipPath><clipPath clipPathUnits="userSpaceOnUse" id="my_clip_path42"><path d="M256 6C225 42 168 -3 129 6C90 15 67 38 146 82C225 126 52 97 8.99999 93C-34 89 108 202 71 266C34 330 375 266 350 234C325 202 421 149 375 149C329 149 287 -30 256 6Z" /></clipPath><clipPath clipPathUnits="userSpaceOnUse" id="my_clip_path43"><path d="M16 68C-11 104 -5.99998 232 66 265C138 298 386 174 352 200C318 226 286.688 342.354 282 334C282 334 300 343 365 304C430 265 395 68 365 92C335 116 245 58 233 86C221 114 196 166 196 166C196 166 179 103 155 86C131 69 335 51 341 32C347 13 140 -9 138 6C136 21 103 36 103 52C103 68 43 32 16 68Z" /></clipPath><clipPath clipPathUnits="userSpaceOnUse" id="my_clip_path44"><path d="M124 20C22 49 22 37 22 85C22 133 -26 183 22 168C70 153 108 239 141 251C174 263 159 175 226 173C293 171 170 289 208 279C246 269 340 265 375 279C410 293 306 106 347 49C388 -8.00001 226 -9.00002 124 20Z" /></clipPath></defs><image clip-path="url(#my_clip_path14)" height="150" transform="translate(-50,-50)" width="150" xlink:href="stickers/pink.png"><animateTransform additive="sum" attributeName="transform" dur="8s" from="0 1000 500" repeatCount="indefinite" to="360 1000 500" type="rotate" /></image><image clip-path="url(#my_clip_path2)" height="150" transform="translate(-50,100)" width="150" xlink:href="stickers/blue-blue.png"><animateTransform additive="sum" attributeName="transform" dur="9s" from="0 1000 500" repeatCount="indefinite" to="360 1000 500" type="rotate" /></image><image clip-path="url(#my_clip_path32)" height="150" transform="translate(-50,250)" width="150" xlink:href="stickers/blue-blue.png"><animateTransform additive="sum" attributeName="transform" dur="5s" from="0 1000 500" repeatCount="indefinite" to="360 1000 500" type="rotate" /></image><image clip-path="url(#my_clip_path28)" height="150" transform="translate(-50,400)" width="150" xlink:href="stickers/yellow.png"><animateTransform additive="sum" attributeName="transform" dur="5s" from="0 1000 500" repeatCount="indefinite" to="360 1000 500" type="rotate" /></image><image clip-path="url(#my_clip_path21)" height="150" transform="translate(-50,550)" width="150" xlink:href="stickers/yellow-bored.png"><animateTransform additive="sum" attributeName="transform" dur="13s" from="0 1000 500" repeatCount="indefinite" to="360 1000 500" type="rotate" /></image><image clip-path="url(#my_clip_path6)" height="150" transform="translate(-50,700)" width="150" xlink:href="stickers/blue-blue.png"><animateTransform additive="sum" attributeName="transform" dur="13s" from="0 1000 500" repeatCount="indefinite" to="360 1000 500" type="rotate" /></image><image clip-path="url(#my_clip_path22)" height="150" transform="translate(-50,850)" width="150" xlink:href="stickers/yellow.png"><animateTransform additive="sum" attributeName="transform" dur="7s" from="0 1000 500" repeatCount="indefinite" to="360 1000 500" type="rotate" /></image><image clip-path="url(#my_clip_path24)" height="150" transform="translate(-50,1000)" width="150" xlink:href="stickers/yellow-bored.png"><animateTransform additive="sum" attributeName="transform" dur="13s" from="0 1000 500" repeatCount="indefinite" to="360 1000 500" type="rotate" /></image><image clip-path="url(#my_clip_path4)" height="150" transform="translate(-50,1150)" width="150" xlink:href="stickers/yellow.png"><animateTransform additive="sum" attributeName="transform" dur="7s" from="0 1000 500" repeatCount="indefinite" to="360 1000 500" type="rotate" /></image><image clip-path="url(#my_clip_path14)" height="150" transform="translate(-50,1300)" width="150" xlink:href="stickers/yellow-bored.png"><animateTransform additive="sum" attributeName="transform" dur="6s" from="0 1000 500" repeatCount="indefinite" to="360 1000 500" type="rotate" /></image><image clip-path="url(#my_clip_path40)" height="150" transform="translate(100,-50)" width="150" xlink:href="stickers/yellow.png"><animateTransform additive="sum" attributeName="transform" dur="8s" from="0 1000 500" repeatCount="indefinite" to="360 1000 500" type="rotate" /></image><image clip-path="url(#my_clip_path13)" height="150" transform="translate(100,100)" width="150" xlink:href="stickers/red-circle.png"><animateTransform additive="sum" attributeName="transform" dur="16s" from="0 1000 500" repeatCount="indefinite" to="360 1000 500" type="rotate" /></image><image clip-path="url(#my_clip_path10)" height="150" transform="translate(100,250)" width="150" xlink:href="stickers/blue-blue.png"><animateTransform additive="sum" attributeName="transform" dur="13s" from="0 1000 500" repeatCount="indefinite" to="360 1000 500" type="rotate" /></image><image clip-path="url(#my_clip_path43)" height="150" transform="translate(100,400)" width="150" xlink:href="stickers/black-polygon.png"><animateTransform additive="sum" attributeName="transform" dur="19s" from="0 1000 500" repeatCount="indefinite" to="360 1000 500" type="rotate" /></image><image clip-path="url(#my_clip_path20)" height="150" transform="translate(100,550)" width="150" xlink:href="stickers/blue-blue.png"><animateTransform additive="sum" attributeName="transform" dur="15s" from="0 1000 500" repeatCount="indefinite" to="360 1000 500" type="rotate" /></image><image clip-path="url(#my_clip_path36)" height="150" transform="translate(100,700)" width="150" xlink:href="stickers/yellow-bored.png"><animateTransform additive="sum" attributeName="transform" dur="17s" from="0 1000 500" repeatCount="indefinite" to="360 1000 500" type="rotate" /></image><image clip-path="url(#my_clip_path41)" height="150" transform="translate(100,850)" width="150" xlink:href="stickers/yellow-bored.png"><animateTransform additive="sum" attributeName="transform" dur="15s" from="0 1000 500" repeatCount="indefinite" to="360 1000 500" type="rotate" /></image><image clip-path="url(#my_clip_path15)" height="150" transform="translate(100,1000)" width="150" xlink:href="stickers/yellow.png"><animateTransform additive="sum" attributeName="transform" dur="19s" from="0 1000 500" repeatCount="indefinite" to="360 1000 500" type="rotate" /></image><image clip-path="url(#my_clip_path14)" height="150" transform="translate(100,1150)" width="150" xlink:href="stickers/blue-blue.png"><animateTransform additive="sum" attributeName="transform" dur="13s" from="0 1000 500" repeatCount="indefinite" to="360 1000 500" type="rotate" /></image><image clip-path="url(#my_clip_path7)" height="150" transform="translate(100,1300)" width="150" xlink:href="stickers/blue-blue.png"><animateTransform additive="sum" attributeName="transform" dur="9s" from="0 1000 500" repeatCount="indefinite" to="360 1000 500" type="rotate" /></image><image clip-path="url(#my_clip_path24)" height="150" transform="translate(250,-50)" width="150" xlink:href="stickers/red-square-bristles.png"><animateTransform additive="sum" attributeName="transform" dur="9s" from="0 1000 500" repeatCount="indefinite" to="360 1000 500" type="rotate" /></image><image clip-path="url(#my_clip_path43)" height="150" transform="translate(250,100)" width="150" xlink:href="stickers/yellow-bored.png"><animateTransform additive="sum" attributeName="transform" dur="17s" from="0 1000 500" repeatCount="indefinite" to="360 1000 500" type="rotate" /></image><image clip-path="url(#my_clip_path18)" height="150" transform="translate(250,250)" width="150" xlink:href="stickers/yellow.png"><animateTransform additive="sum" attributeName="transform" dur="8s" from="0 1000 500" repeatCount="indefinite" to="360 1000 500" type="rotate" /></image><image clip-path="url(#my_clip_path16)" height="150" transform="translate(250,400)" width="150" xlink:href="stickers/red-circle.png"><animateTransform additive="sum" attributeName="transform" dur="18s" from="0 1000 500" repeatCount="indefinite" to="360 1000 500" type="rotate" /></image><image clip-path="url(#my_clip_path9)" height="150" transform="translate(250,550)" width="150" xlink:href="stickers/blue-blue.png"><animateTransform additive="sum" attributeName="transform" dur="10s" from="0 1000 500" repeatCount="indefinite" to="360 1000 500" type="rotate" /></image><image clip-path="url(#my_clip_path31)" height="150" transform="translate(250,700)" width="150" xlink:href="stickers/blue-blue.png"><animateTransform additive="sum" attributeName="transform" dur="16s" from="0 1000 500" repeatCount="indefinite" to="360 1000 500" type="rotate" /></image><image clip-path="url(#my_clip_path15)" height="150" transform="translate(250,850)" width="150" xlink:href="stickers/red-square-bristles.png"><animateTransform additive="sum" attributeName="transform" dur="5s" from="0 1000 500" repeatCount="indefinite" to="360 1000 500" type="rotate" /></image><image clip-path="url(#my_clip_path31)" height="150" transform="translate(250,1000)" width="150" xlink:href="stickers/yellow-bored.png"><animateTransform additive="sum" attributeName="transform" dur="6s" from="0 1000 500" repeatCount="indefinite" to="360 1000 500" type="rotate" /></image><image clip-path="url(#my_clip_path35)" height="150" transform="translate(250,1150)" width="150" xlink:href="stickers/blue-blue.png"><animateTransform additive="sum" attributeName="transform" dur="7s" from="0 1000 500" repeatCount="indefinite" to="360 1000 500" type="rotate" /></image><image clip-path="url(#my_clip_path34)" height="150" transform="translate(250,1300)" width="150" xlink:href="stickers/green.png"><animateTransform additive="sum" attributeName="transform" dur="10s" from="0 1000 500" repeatCount="indefinite" to="360 1000 500" type="rotate" /></image><image clip-path="url(#my_clip_path28)" height="150" transform="translate(400,-50)" width="150" xlink:href="stickers/yellow-bored.png"><animateTransform additive="sum" attributeName="transform" dur="11s" from="0 1000 500" repeatCount="indefinite" to="360 1000 500" type="rotate" /></image><image clip-path="url(#my_clip_path4)" height="150" transform="translate(400,100)" width="150" xlink:href="stickers/yellow-bored.png"><animateTransform additive="sum" attributeName="transform" dur="19s" from="0 1000 500" repeatCount="indefinite" to="360 1000 500" type="rotate" /></image><image clip-path="url(#my_clip_path0)" height="150" transform="translate(400,250)" width="150" xlink:href="stickers/red-square-bristles.png"><animateTransform additive="sum" attributeName="transform" dur="15s" from="0 1000 500" repeatCount="indefinite" to="360 1000 500" type="rotate" /></image><image clip-path="url(#my_clip_path2)" height="150" transform="translate(400,400)" width="150" xlink:href="stickers/red-square-bristles.png"><animateTransform additive="sum" attributeName="transform" dur="7s" from="0 1000 500" repeatCount="indefinite" to="360 1000 500" type="rotate" /></image><image clip-path="url(#my_clip_path42)" height="150" transform="translate(400,550)" width="150" xlink:href="stickers/blue-blue.png"><animateTransform additive="sum" attributeName="transform" dur="15s" from="0 1000 500" repeatCount="indefinite" to="360 1000 500" type="rotate" /></image><image clip-path="url(#my_clip_path15)" height="150" transform="translate(400,700)" width="150" xlink:href="stickers/yellow-bored.png"><animateTransform additive="sum" attributeName="transform" dur="20s" from="0 1000 500" repeatCount="indefinite" to="360 1000 500" type="rotate" /></image></svg>