<?xml version="1.0" encoding="utf-8" ?>
<svg baseProfile="full" height="20000" version="1.1" width="20000" xmlns="http://www.w3.org/2000/svg" xmlns:ev="http://www.w3.org/2001/xml-events" xmlns:xlink="http://www.w3.org/1999/xlink"><defs><clipPath clipPathUnits="userSpaceOnUse" id="my_clip_path0"><path d="M31.0001 129C48.3074 109.178 -50.2923 96.1459 38.0001 58C38.0001 58 42.0001 5.99999 56.0001 14C70.0001 22 155 32 168 9C181 -14 246.444 19.4322 233 32C219.556 44.5678 150 177 188 193C226 209 291 78 274 78C257 78 262 -14 285 9C308 32 360 78 390 69C420 60 342 103 372 113C402 123 435 183 435 183C435 183 417 263 435 269C453 275 435 347 425 329C415 311 372 297 372 329C372 361 330 310 315 324C300 338 302 239 215 293C128 347 15 324 38.0001 299C61.0003 274 31.0001 129 31.0001 129Z" /></clipPath><clipPath clipPathUnits="userSpaceOnUse" id="my_clip_path1"><path d="M26 307C-41 342 52 53 32 50C12 47 32 17 58 10C84 3 367 -11 349 23C331 57 292 42 262 57C232 72 438 295 403 316C368 337 93 272 26 307Z" /></clipPath><clipPath clipPathUnits="userSpaceOnUse" id="my_clip_path2"><path d="M63 284C29 269 75 87 29 118C-17 149 2.99999 26 29 33C55 40 77 -4.00001 107 2.99999C137 9.99999 211 26 265 50C319 74 273 13 303 2.99999C333 -7.00001 386 27 407 26C428 25 359 269 359 269C230.938 296.99 368.092 173.987 333 171C297.908 168.013 97 299 63 284Z" /></clipPath><clipPath clipPathUnits="userSpaceOnUse" id="my_clip_path3"><path d="M192 23C172 57 137 8.00001 119 1.00001C101 -5.99999 144 257 119 179C94 101 62 20 40 32C18 44 12 71.6667 1 96C1 96 40 295 84 246C128 197 176 209 244 266C312 323 254 86 299 83C344 80 212 -11 192 23Z" /></clipPath><clipPath clipPathUnits="userSpaceOnUse" id="my_clip_path4"><path d="M82 334C108 313 84.0002 168 245 298C406 428 220 119 258 74C296 29 450 49 418 17C386 -15 35 3.00001 7 34C-21 65 56 355 82 334Z" /></clipPath><clipPath clipPathUnits="userSpaceOnUse" id="my_clip_path5"><path d="M43 287C231.108 186.979 99.4451 19.3216 26 19C-47.4451 18.6784 180 -11 188 6C196 23 309 19 320 41C331 63 382 -5.00001 403 19C424 43 418 321 388 287C358 253 -145.108 387.021 43 287Z" /></clipPath><clipPath clipPathUnits="userSpaceOnUse" id="my_clip_path6"><path d="M145 37C137 12 20 54 20 54C20 54 -15 54 11.0002 72C37.0003 90 112.6 133.8 127 149C145 168 67 160 20 181C-27 202 33 242 41 254C47.4 263.6 69 273 98 288C127 303 126.003 215.869 165 248C168.087 250.544 207 296 314 216C421 136 219.697 134.064 223 94C238.287 -91.3926 153 62 145 37Z" /></clipPath><clipPath clipPathUnits="userSpaceOnUse" id="my_clip_path7"><path d="M16 68C-11 104 -5.99998 232 66 265C138 298 386 174 352 200C318 226 286.688 342.354 282 334C282 334 300 343 365 304C430 265 395 68 365 92C335 116 245 58 233 86C221 114 196 166 196 166C196 166 179 103 155 86C131 69 335 51 341 32C347 13 140 -9 138 6C136 21 103 36 103 52C103 68 43 32 16 68Z" /></clipPath><clipPath clipPathUnits="userSpaceOnUse" id="my_clip_path8"><path d="M256 6C225 42 168 -3 129 6C90 15 67 38 146 82C225 126 52 97 8.99999 93C-34 89 108 202 71 266C34 330 375 266 350 234C325 202 421 149 375 149C329 149 287 -30 256 6Z" /></clipPath><clipPath clipPathUnits="userSpaceOnUse" id="my_clip_path9"><path d="M143 10C88 49 95 111 35 85C-25 59 13 99 13 99C13 99 35 122 54 122C73 122 52 132 24 135C-4 138 35 178 66 162C97 146 108 141 154 122C200 103 2 271 13 315C24 359 266 198 322 261C378 324 443 135 378 99C313 63.0001 198 -29 143 10Z" /></clipPath><clipPath clipPathUnits="userSpaceOnUse" id="my_clip_path10"><path d="M110 301C29.7819 197.584 -26 234 29 184C84 134 18 171 9 173C-9.53674e-07 175 -7.99999 9 22 21C52 33 245 3 245 59C245 115 404 -17.8422 426 3C448 23.8422 390 285 364 275C338 265 312 191 302 222C292 253 110 301 110 301Z" /></clipPath><clipPath clipPathUnits="userSpaceOnUse" id="my_clip_path11"><path d="M316 105C332 81.6667 54 41 21 38C-12 35 56 -15 71 7C86 29 399 7.99998 410 23C421 38 273 190 298 209C323 228 399 345 371 339C343 333 26 309 7.99999 270C-10 231 9.99999 60 26 52C42 44 221 92 316 105Z" /></clipPath><clipPath clipPathUnits="userSpaceOnUse" id="my_clip_path12"><path d="M272 314C262.222 274.605 118.878 136.019 47 170C-24.8782 203.981 31 142 16 135C0.999991 128 -11.0965 -64.2382 24 12.0001C59.0965 88.2384 384.012 64.0504 405 22.0001C425.988 -20.0502 426 340 385 340C344 340 152 354 124 340C96 326 281.777 353.395 272 314Z" /></clipPath><clipPath clipPathUnits="userSpaceOnUse" id="my_clip_path13"><path d="M56 90C55.4054 88.9891 52.6145 111.034 54.3072 87.017M54.3072 87.017C56 63 118 56 113 33C108 10 73 -2.99999 56 10C39 23 28 10 8.00001 10C-12 10 32 56 21 63C10 70 41 107 56 123C71 139 -5 123 8.00001 144C21 165 -14 215 8.00001 207C30 199 70 218 56 223C42 228 22 252 39 255C56 258 91 263 102 275C113 287 141 219 124 217C107 215 166.08 153.782 138 184C109.92 214.219 207 215 194 223C181 231 181 269 194 268C207 267 243 248 258 239C273 230 228 179 212 179C196 179 222 157 222 157C222 157 261 147 266 157C271 167 270 203 286 199C302 195 291 192 303 179C315 166 252 124 252 107C252 90 180 112 146 107C112 102 277 71 252 56C227 41 232 17 222 4.00001C212 -8.99999 206 20 200 33C195.2 43.4 192 -0.999985 181 10C170 21 170 41 154 33C138 25 154 79 146 71C138 63 76 71 54.3072 87.017Z" /></clipPath><clipPath clipPathUnits="userSpaceOnUse" id="my_clip_path14"><path d="M16.9999 320C-18.0002 317 124 49 40 75C-44 101 31 9.00002 52 27C73 45 230 38 265 5.00001C300 -28 310 157 326 106C342 55.0001 373 44 389 75C405 106 301 343 265 309C229 275 171 299 175 249C179 199 52 323 16.9999 320Z" /></clipPath></defs><rect fill="white" height="100%" width="100%" x="0" y="0" /><image clip-path="url(#my_clip_path3)" height="300" id="image0" transform="translate(-100,-100)" width="300" xlink:href="https://elements.stoumann.dk/assets/img/clippath-demo.jpg"><animateTransform additive="sum" attributeName="transform" dur="50s" from="360 -250 -250" repeatCount="indefinite" to="0 -250 -250" type="rotate" /></image><image clip-path="url(#my_clip_path9)" height="300" id="image1" transform="translate(-100,200)" width="300" xlink:href="https://elements.stoumann.dk/assets/img/clippath-demo.jpg"><animateTransform additive="sum" attributeName="transform" dur="24s" from="360 -250 50" repeatCount="indefinite" to="0 -250 50" type="rotate" /></image><image clip-path="url(#my_clip_path3)" height="300" id="image2" transform="translate(-100,500)" width="300" xlink:href="https://elements.stoumann.dk/assets/img/clippath-demo.jpg"><animateTransform additive="sum" attributeName="transform" dur="37s" from="360 -250 350" repeatCount="indefinite" to="0 -250 350" type="rotate" /></image><image clip-path="url(#my_clip_path3)" height="300" id="image3" transform="translate(-100,800)" width="300" xlink:href="https://elements.stoumann.dk/assets/img/clippath-demo.jpg"><animateTransform additive="sum" attributeName="transform" dur="24s" from="360 -250 650" repeatCount="indefinite" to="0 -250 650" type="rotate" /></image><image clip-path="url(#my_clip_path11)" height="300" id="image4" transform="translate(-100,1100)" width="300" xlink:href="https://elements.stoumann.dk/assets/img/clippath-demo.jpg"><animateTransform additive="sum" attributeName="transform" dur="38s" from="360 -250 950" repeatCount="indefinite" to="0 -250 950" type="rotate" /></image><image clip-path="url(#my_clip_path3)" height="300" id="image5" transform="translate(-100,1400)" width="300" xlink:href="https://elements.stoumann.dk/assets/img/clippath-demo.jpg"><animateTransform additive="sum" attributeName="transform" dur="37s" from="360 -250 1250" repeatCount="indefinite" to="0 -250 1250" type="rotate" /></image><image clip-path="url(#my_clip_path6)" height="300" id="image6" transform="translate(-100,1700)" width="300" xlink:href="https://elements.stoumann.dk/assets/img/clippath-demo.jpg"><animateTransform additive="sum" attributeName="transform" dur="58s" from="360 -250 1550" repeatCount="indefinite" to="0 -250 1550" type="rotate" /></image><image clip-path="url(#my_clip_path12)" height="300" id="image7" transform="translate(-100,2000)" width="300" xlink:href="https://elements.stoumann.dk/assets/img/clippath-demo.jpg"><animateTransform additive="sum" attributeName="transform" dur="16s" from="360 -250 1850" repeatCount="indefinite" to="0 -250 1850" type="rotate" /></image><image clip-path="url(#my_clip_path1)" height="300" id="image8" transform="translate(-100,2300)" width="300" xlink:href="https://elements.stoumann.dk/assets/img/clippath-demo.jpg"><animateTransform additive="sum" attributeName="transform" dur="12s" from="360 -250 2150" repeatCount="indefinite" to="0 -250 2150" type="rotate" /></image><image clip-path="url(#my_clip_path11)" height="300" id="image9" transform="translate(-100,2600)" width="300" xlink:href="https://elements.stoumann.dk/assets/img/clippath-demo.jpg"><animateTransform additive="sum" attributeName="transform" dur="45s" from="360 -250 2450" repeatCount="indefinite" to="0 -250 2450" type="rotate" /></image><image clip-path="url(#my_clip_path1)" height="300" id="image10" transform="translate(200,-100)" width="300" xlink:href="https://elements.stoumann.dk/assets/img/clippath-demo.jpg"><animateTransform additive="sum" attributeName="transform" dur="14s" from="360 50 -250" repeatCount="indefinite" to="0 50 -250" type="rotate" /></image><image clip-path="url(#my_clip_path7)" height="300" id="image11" transform="translate(200,200)" width="300" xlink:href="https://elements.stoumann.dk/assets/img/clippath-demo.jpg"><animateTransform additive="sum" attributeName="transform" dur="24s" from="360 50 50" repeatCount="indefinite" to="0 50 50" type="rotate" /></image><image clip-path="url(#my_clip_path5)" height="300" id="image12" transform="translate(200,500)" width="300" xlink:href="https://elements.stoumann.dk/assets/img/clippath-demo.jpg"><animateTransform additive="sum" attributeName="transform" dur="50s" from="360 50 350" repeatCount="indefinite" to="0 50 350" type="rotate" /></image><image clip-path="url(#my_clip_path8)" height="300" id="image13" transform="translate(200,800)" width="300" xlink:href="https://elements.stoumann.dk/assets/img/clippath-demo.jpg"><animateTransform additive="sum" attributeName="transform" dur="23s" from="360 50 650" repeatCount="indefinite" to="0 50 650" type="rotate" /></image><image clip-path="url(#my_clip_path6)" height="300" id="image14" transform="translate(200,1100)" width="300" xlink:href="https://elements.stoumann.dk/assets/img/clippath-demo.jpg"><animateTransform additive="sum" attributeName="transform" dur="56s" from="360 50 950" repeatCount="indefinite" to="0 50 950" type="rotate" /></image><image clip-path="url(#my_clip_path3)" height="300" id="image15" transform="translate(200,1400)" width="300" xlink:href="https://elements.stoumann.dk/assets/img/clippath-demo.jpg"><animateTransform additive="sum" attributeName="transform" dur="27s" from="360 50 1250" repeatCount="indefinite" to="0 50 1250" type="rotate" /></image><image clip-path="url(#my_clip_path1)" height="300" id="image16" transform="translate(200,1700)" width="300" xlink:href="https://elements.stoumann.dk/assets/img/clippath-demo.jpg"><animateTransform additive="sum" attributeName="transform" dur="12s" from="360 50 1550" repeatCount="indefinite" to="0 50 1550" type="rotate" /></image><image clip-path="url(#my_clip_path6)" height="300" id="image17" transform="translate(200,2000)" width="300" xlink:href="https://elements.stoumann.dk/assets/img/clippath-demo.jpg"><animateTransform additive="sum" attributeName="transform" dur="23s" from="360 50 1850" repeatCount="indefinite" to="0 50 1850" type="rotate" /></image><image clip-path="url(#my_clip_path2)" height="300" id="image18" transform="translate(200,2300)" width="300" xlink:href="https://elements.stoumann.dk/assets/img/clippath-demo.jpg"><animateTransform additive="sum" attributeName="transform" dur="51s" from="360 50 2150" repeatCount="indefinite" to="0 50 2150" type="rotate" /></image><image clip-path="url(#my_clip_path5)" height="300" id="image19" transform="translate(200,2600)" width="300" xlink:href="https://elements.stoumann.dk/assets/img/clippath-demo.jpg"><animateTransform additive="sum" attributeName="transform" dur="25s" from="360 50 2450" repeatCount="indefinite" to="0 50 2450" type="rotate" /></image><image clip-path="url(#my_clip_path12)" height="300" id="image20" transform="translate(500,-100)" width="300" xlink:href="https://elements.stoumann.dk/assets/img/clippath-demo.jpg"><animateTransform additive="sum" attributeName="transform" dur="24s" from="360 350 -250" repeatCount="indefinite" to="0 350 -250" type="rotate" /></image><image clip-path="url(#my_clip_path12)" height="300" id="image21" transform="translate(500,200)" width="300" xlink:href="https://elements.stoumann.dk/assets/img/clippath-demo.jpg"><animateTransform additive="sum" attributeName="transform" dur="13s" from="360 350 50" repeatCount="indefinite" to="0 350 50" type="rotate" /></image><image clip-path="url(#my_clip_path6)" height="300" id="image22" transform="translate(500,500)" width="300" xlink:href="https://elements.stoumann.dk/assets/img/clippath-demo.jpg"><animateTransform additive="sum" attributeName="transform" dur="53s" from="360 350 350" repeatCount="indefinite" to="0 350 350" type="rotate" /></image><image clip-path="url(#my_clip_path10)" height="300" id="image23" transform="translate(500,800)" width="300" xlink:href="https://elements.stoumann.dk/assets/img/clippath-demo.jpg"><animateTransform additive="sum" attributeName="transform" dur="48s" from="360 350 650" repeatCount="indefinite" to="0 350 650" type="rotate" /></image><image clip-path="url(#my_clip_path1)" height="300" id="image24" transform="translate(500,1100)" width="300" xlink:href="https://elements.stoumann.dk/assets/img/clippath-demo.jpg"><animateTransform additive="sum" attributeName="transform" dur="56s" from="360 350 950" repeatCount="indefinite" to="0 350 950" type="rotate" /></image><image clip-path="url(#my_clip_path0)" height="300" id="image25" transform="translate(500,1400)" width="300" xlink:href="https://elements.stoumann.dk/assets/img/clippath-demo.jpg"><animateTransform additive="sum" attributeName="transform" dur="28s" from="360 350 1250" repeatCount="indefinite" to="0 350 1250" type="rotate" /></image><image clip-path="url(#my_clip_path13)" height="300" id="image26" transform="translate(500,1700)" width="300" xlink:href="https://elements.stoumann.dk/assets/img/clippath-demo.jpg"><animateTransform additive="sum" attributeName="transform" dur="56s" from="360 350 1550" repeatCount="indefinite" to="0 350 1550" type="rotate" /></image><image clip-path="url(#my_clip_path5)" height="300" id="image27" transform="translate(500,2000)" width="300" xlink:href="https://elements.stoumann.dk/assets/img/clippath-demo.jpg"><animateTransform additive="sum" attributeName="transform" dur="50s" from="360 350 1850" repeatCount="indefinite" to="0 350 1850" type="rotate" /></image><image clip-path="url(#my_clip_path7)" height="300" id="image28" transform="translate(500,2300)" width="300" xlink:href="https://elements.stoumann.dk/assets/img/clippath-demo.jpg"><animateTransform additive="sum" attributeName="transform" dur="58s" from="360 350 2150" repeatCount="indefinite" to="0 350 2150" type="rotate" /></image><image clip-path="url(#my_clip_path3)" height="300" id="image29" transform="translate(500,2600)" width="300" xlink:href="https://elements.stoumann.dk/assets/img/clippath-demo.jpg"><animateTransform additive="sum" attributeName="transform" dur="11s" from="360 350 2450" repeatCount="indefinite" to="0 350 2450" type="rotate" /></image><image clip-path="url(#my_clip_path11)" height="300" id="image30" transform="translate(800,-100)" width="300" xlink:href="https://elements.stoumann.dk/assets/img/clippath-demo.jpg"><animateTransform additive="sum" attributeName="transform" dur="13s" from="360 650 -250" repeatCount="indefinite" to="0 650 -250" type="rotate" /></image><image clip-path="url(#my_clip_path10)" height="300" id="image31" transform="translate(800,200)" width="300" xlink:href="https://elements.stoumann.dk/assets/img/clippath-demo.jpg"><animateTransform additive="sum" attributeName="transform" dur="41s" from="360 650 50" repeatCount="indefinite" to="0 650 50" type="rotate" /></image><image clip-path="url(#my_clip_path3)" height="300" id="image32" transform="translate(800,500)" width="300" xlink:href="https://elements.stoumann.dk/assets/img/clippath-demo.jpg"><animateTransform additive="sum" attributeName="transform" dur="40s" from="360 650 350" repeatCount="indefinite" to="0 650 350" type="rotate" /></image><image clip-path="url(#my_clip_path10)" height="300" id="image33" transform="translate(800,800)" width="300" xlink:href="https://elements.stoumann.dk/assets/img/clippath-demo.jpg"><animateTransform additive="sum" attributeName="transform" dur="44s" from="360 650 650" repeatCount="indefinite" to="0 650 650" type="rotate" /></image><image clip-path="url(#my_clip_path1)" height="300" id="image34" transform="translate(800,1100)" width="300" xlink:href="https://elements.stoumann.dk/assets/img/clippath-demo.jpg"><animateTransform additive="sum" attributeName="transform" dur="51s" from="360 650 950" repeatCount="indefinite" to="0 650 950" type="rotate" /></image><image clip-path="url(#my_clip_path0)" height="300" id="image35" transform="translate(800,1400)" width="300" xlink:href="https://elements.stoumann.dk/assets/img/clippath-demo.jpg"><animateTransform additive="sum" attributeName="transform" dur="25s" from="360 650 1250" repeatCount="indefinite" to="0 650 1250" type="rotate" /></image><image clip-path="url(#my_clip_path1)" height="300" id="image36" transform="translate(800,1700)" width="300" xlink:href="https://elements.stoumann.dk/assets/img/clippath-demo.jpg"><animateTransform additive="sum" attributeName="transform" dur="47s" from="360 650 1550" repeatCount="indefinite" to="0 650 1550" type="rotate" /></image><image clip-path="url(#my_clip_path14)" height="300" id="image37" transform="translate(800,2000)" width="300" xlink:href="https://elements.stoumann.dk/assets/img/clippath-demo.jpg"><animateTransform additive="sum" attributeName="transform" dur="55s" from="360 650 1850" repeatCount="indefinite" to="0 650 1850" type="rotate" /></image><image clip-path="url(#my_clip_path4)" height="300" id="image38" transform="translate(800,2300)" width="300" xlink:href="https://elements.stoumann.dk/assets/img/clippath-demo.jpg"><animateTransform additive="sum" attributeName="transform" dur="12s" from="360 650 2150" repeatCount="indefinite" to="0 650 2150" type="rotate" /></image><image clip-path="url(#my_clip_path11)" height="300" id="image39" transform="translate(800,2600)" width="300" xlink:href="https://elements.stoumann.dk/assets/img/clippath-demo.jpg"><animateTransform additive="sum" attributeName="transform" dur="52s" from="360 650 2450" repeatCount="indefinite" to="0 650 2450" type="rotate" /></image><image clip-path="url(#my_clip_path12)" height="300" id="image40" transform="translate(1100,-100)" width="300" xlink:href="https://elements.stoumann.dk/assets/img/clippath-demo.jpg"><animateTransform additive="sum" attributeName="transform" dur="46s" from="360 950 -250" repeatCount="indefinite" to="0 950 -250" type="rotate" /></image><image clip-path="url(#my_clip_path10)" height="300" id="image41" transform="translate(1100,200)" width="300" xlink:href="https://elements.stoumann.dk/assets/img/clippath-demo.jpg"><animateTransform additive="sum" attributeName="transform" dur="36s" from="360 950 50" repeatCount="indefinite" to="0 950 50" type="rotate" /></image><image clip-path="url(#my_clip_path7)" height="300" id="image42" transform="translate(1100,500)" width="300" xlink:href="https://elements.stoumann.dk/assets/img/clippath-demo.jpg"><animateTransform additive="sum" attributeName="transform" dur="37s" from="360 950 350" repeatCount="indefinite" to="0 950 350" type="rotate" /></image><image clip-path="url(#my_clip_path6)" height="300" id="image43" transform="translate(1100,800)" width="300" xlink:href="https://elements.stoumann.dk/assets/img/clippath-demo.jpg"><animateTransform additive="sum" attributeName="transform" dur="56s" from="360 950 650" repeatCount="indefinite" to="0 950 650" type="rotate" /></image><image clip-path="url(#my_clip_path3)" height="300" id="image44" transform="translate(1100,1100)" width="300" xlink:href="https://elements.stoumann.dk/assets/img/clippath-demo.jpg"><animateTransform additive="sum" attributeName="transform" dur="56s" from="360 950 950" repeatCount="indefinite" to="0 950 950" type="rotate" /></image><image clip-path="url(#my_clip_path2)" height="300" id="image45" transform="translate(1100,1400)" width="300" xlink:href="https://elements.stoumann.dk/assets/img/clippath-demo.jpg"><animateTransform additive="sum" attributeName="transform" dur="22s" from="360 950 1250" repeatCount="indefinite" to="0 950 1250" type="rotate" /></image><image clip-path="url(#my_clip_path7)" height="300" id="image46" transform="translate(1100,1700)" width="300" xlink:href="https://elements.stoumann.dk/assets/img/clippath-demo.jpg"><animateTransform additive="sum" attributeName="transform" dur="27s" from="360 950 1550" repeatCount="indefinite" to="0 950 1550" type="rotate" /></image><image clip-path="url(#my_clip_path1)" height="300" id="image47" transform="translate(1100,2000)" width="300" xlink:href="https://elements.stoumann.dk/assets/img/clippath-demo.jpg"><animateTransform additive="sum" attributeName="transform" dur="45s" from="360 950 1850" repeatCount="indefinite" to="0 950 1850" type="rotate" /></image><image clip-path="url(#my_clip_path7)" height="300" id="image48" transform="translate(1100,2300)" width="300" xlink:href="https://elements.stoumann.dk/assets/img/clippath-demo.jpg"><animateTransform additive="sum" attributeName="transform" dur="58s" from="360 950 2150" repeatCount="indefinite" to="0 950 2150" type="rotate" /></image><image clip-path="url(#my_clip_path2)" height="300" id="image49" transform="translate(1100,2600)" width="300" xlink:href="https://elements.stoumann.dk/assets/img/clippath-demo.jpg"><animateTransform additive="sum" attributeName="transform" dur="40s" from="360 950 2450" repeatCount="indefinite" to="0 950 2450" type="rotate" /></image><image clip-path="url(#my_clip_path14)" height="300" id="image50" transform="translate(1400,-100)" width="300" xlink:href="https://elements.stoumann.dk/assets/img/clippath-demo.jpg"><animateTransform additive="sum" attributeName="transform" dur="34s" from="360 1250 -250" repeatCount="indefinite" to="0 1250 -250" type="rotate" /></image><image clip-path="url(#my_clip_path11)" height="300" id="image51" transform="translate(1400,200)" width="300" xlink:href="https://elements.stoumann.dk/assets/img/clippath-demo.jpg"><animateTransform additive="sum" attributeName="transform" dur="60s" from="360 1250 50" repeatCount="indefinite" to="0 1250 50" type="rotate" /></image><image clip-path="url(#my_clip_path4)" height="300" id="image52" transform="translate(1400,500)" width="300" xlink:href="https://elements.stoumann.dk/assets/img/clippath-demo.jpg"><animateTransform additive="sum" attributeName="transform" dur="56s" from="360 1250 350" repeatCount="indefinite" to="0 1250 350" type="rotate" /></image><image clip-path="url(#my_clip_path0)" height="300" id="image53" transform="translate(1400,800)" width="300" xlink:href="https://elements.stoumann.dk/assets/img/clippath-demo.jpg"><animateTransform additive="sum" attributeName="transform" dur="23s" from="360 1250 650" repeatCount="indefinite" to="0 1250 650" type="rotate" /></image><image clip-path="url(#my_clip_path8)" height="300" id="image54" transform="translate(1400,1100)" width="300" xlink:href="https://elements.stoumann.dk/assets/img/clippath-demo.jpg"><animateTransform additive="sum" attributeName="transform" dur="13s" from="360 1250 950" repeatCount="indefinite" to="0 1250 950" type="rotate" /></image><image clip-path="url(#my_clip_path10)" height="300" id="image55" transform="translate(1400,1400)" width="300" xlink:href="https://elements.stoumann.dk/assets/img/clippath-demo.jpg"><animateTransform additive="sum" attributeName="transform" dur="15s" from="360 1250 1250" repeatCount="indefinite" to="0 1250 1250" type="rotate" /></image><image clip-path="url(#my_clip_path9)" height="300" id="image56" transform="translate(1400,1700)" width="300" xlink:href="https://elements.stoumann.dk/assets/img/clippath-demo.jpg"><animateTransform additive="sum" attributeName="transform" dur="25s" from="360 1250 1550" repeatCount="indefinite" to="0 1250 1550" type="rotate" /></image><image clip-path="url(#my_clip_path10)" height="300" id="image57" transform="translate(1400,2000)" width="300" xlink:href="https://elements.stoumann.dk/assets/img/clippath-demo.jpg"><animateTransform additive="sum" attributeName="transform" dur="48s" from="360 1250 1850" repeatCount="indefinite" to="0 1250 1850" type="rotate" /></image><image clip-path="url(#my_clip_path10)" height="300" id="image58" transform="translate(1400,2300)" width="300" xlink:href="https://elements.stoumann.dk/assets/img/clippath-demo.jpg"><animateTransform additive="sum" attributeName="transform" dur="47s" from="360 1250 2150" repeatCount="indefinite" to="0 1250 2150" type="rotate" /></image><image clip-path="url(#my_clip_path6)" height="300" id="image59" transform="translate(1400,2600)" width="300" xlink:href="https://elements.stoumann.dk/assets/img/clippath-demo.jpg"><animateTransform additive="sum" attributeName="transform" dur="55s" from="360 1250 2450" repeatCount="indefinite" to="0 1250 2450" type="rotate" /></image><image clip-path="url(#my_clip_path14)" height="300" id="image60" transform="translate(1700,-100)" width="300" xlink:href="https://elements.stoumann.dk/assets/img/clippath-demo.jpg"><animateTransform additive="sum" attributeName="transform" dur="18s" from="360 1550 -250" repeatCount="indefinite" to="0 1550 -250" type="rotate" /></image><image clip-path="url(#my_clip_path9)" height="300" id="image61" transform="translate(1700,200)" width="300" xlink:href="https://elements.stoumann.dk/assets/img/clippath-demo.jpg"><animateTransform additive="sum" attributeName="transform" dur="58s" from="360 1550 50" repeatCount="indefinite" to="0 1550 50" type="rotate" /></image><image clip-path="url(#my_clip_path8)" height="300" id="image62" transform="translate(1700,500)" width="300" xlink:href="https://elements.stoumann.dk/assets/img/clippath-demo.jpg"><animateTransform additive="sum" attributeName="transform" dur="46s" from="360 1550 350" repeatCount="indefinite" to="0 1550 350" type="rotate" /></image><image clip-path="url(#my_clip_path14)" height="300" id="image63" transform="translate(1700,800)" width="300" xlink:href="https://elements.stoumann.dk/assets/img/clippath-demo.jpg"><animateTransform additive="sum" attributeName="transform" dur="26s" from="360 1550 650" repeatCount="indefinite" to="0 1550 650" type="rotate" /></image><image clip-path="url(#my_clip_path7)" height="300" id="image64" transform="translate(1700,1100)" width="300" xlink:href="https://elements.stoumann.dk/assets/img/clippath-demo.jpg"><animateTransform additive="sum" attributeName="transform" dur="25s" from="360 1550 950" repeatCount="indefinite" to="0 1550 950" type="rotate" /></image><image clip-path="url(#my_clip_path14)" height="300" id="image65" transform="translate(1700,1400)" width="300" xlink:href="https://elements.stoumann.dk/assets/img/clippath-demo.jpg"><animateTransform additive="sum" attributeName="transform" dur="44s" from="360 1550 1250" repeatCount="indefinite" to="0 1550 1250" type="rotate" /></image><image clip-path="url(#my_clip_path1)" height="300" id="image66" transform="translate(1700,1700)" width="300" xlink:href="https://elements.stoumann.dk/assets/img/clippath-demo.jpg"><animateTransform additive="sum" attributeName="transform" dur="52s" from="360 1550 1550" repeatCount="indefinite" to="0 1550 1550" type="rotate" /></image><image clip-path="url(#my_clip_path9)" height="300" id="image67" transform="translate(1700,2000)" width="300" xlink:href="https://elements.stoumann.dk/assets/img/clippath-demo.jpg"><animateTransform additive="sum" attributeName="transform" dur="16s" from="360 1550 1850" repeatCount="indefinite" to="0 1550 1850" type="rotate" /></image><image clip-path="url(#my_clip_path8)" height="300" id="image68" transform="translate(1700,2300)" width="300" xlink:href="https://elements.stoumann.dk/assets/img/clippath-demo.jpg"><animateTransform additive="sum" attributeName="transform" dur="23s" from="360 1550 2150" repeatCount="indefinite" to="0 1550 2150" type="rotate" /></image><image clip-path="url(#my_clip_path10)" height="300" id="image69" transform="translate(1700,2600)" width="300" xlink:href="https://elements.stoumann.dk/assets/img/clippath-demo.jpg"><animateTransform additive="sum" attributeName="transform" dur="41s" from="360 1550 2450" repeatCount="indefinite" to="0 1550 2450" type="rotate" /></image><image clip-path="url(#my_clip_path5)" height="300" id="image70" transform="translate(2000,-100)" width="300" xlink:href="https://elements.stoumann.dk/assets/img/clippath-demo.jpg"><animateTransform additive="sum" attributeName="transform" dur="37s" from="360 1850 -250" repeatCount="indefinite" to="0 1850 -250" type="rotate" /></image><image clip-path="url(#my_clip_path11)" height="300" id="image71" transform="translate(2000,200)" width="300" xlink:href="https://elements.stoumann.dk/assets/img/clippath-demo.jpg"><animateTransform additive="sum" attributeName="transform" dur="59s" from="360 1850 50" repeatCount="indefinite" to="0 1850 50" type="rotate" /></image><image clip-path="url(#my_clip_path1)" height="300" id="image72" transform="translate(2000,500)" width="300" xlink:href="https://elements.stoumann.dk/assets/img/clippath-demo.jpg"><animateTransform additive="sum" attributeName="transform" dur="38s" from="360 1850 350" repeatCount="indefinite" to="0 1850 350" type="rotate" /></image><image clip-path="url(#my_clip_path9)" height="300" id="image73" transform="translate(2000,800)" width="300" xlink:href="https://elements.stoumann.dk/assets/img/clippath-demo.jpg"><animateTransform additive="sum" attributeName="transform" dur="54s" from="360 1850 650" repeatCount="indefinite" to="0 1850 650" type="rotate" /></image><image clip-path="url(#my_clip_path0)" height="300" id="image74" transform="translate(2000,1100)" width="300" xlink:href="https://elements.stoumann.dk/assets/img/clippath-demo.jpg"><animateTransform additive="sum" attributeName="transform" dur="45s" from="360 1850 950" repeatCount="indefinite" to="0 1850 950" type="rotate" /></image><image clip-path="url(#my_clip_path3)" height="300" id="image75" transform="translate(2000,1400)" width="300" xlink:href="https://elements.stoumann.dk/assets/img/clippath-demo.jpg"><animateTransform additive="sum" attributeName="transform" dur="29s" from="360 1850 1250" repeatCount="indefinite" to="0 1850 1250" type="rotate" /></image><image clip-path="url(#my_clip_path12)" height="300" id="image76" transform="translate(2000,1700)" width="300" xlink:href="https://elements.stoumann.dk/assets/img/clippath-demo.jpg"><animateTransform additive="sum" attributeName="transform" dur="53s" from="360 1850 1550" repeatCount="indefinite" to="0 1850 1550" type="rotate" /></image><image clip-path="url(#my_clip_path13)" height="300" id="image77" transform="translate(2000,2000)" width="300" xlink:href="https://elements.stoumann.dk/assets/img/clippath-demo.jpg"><animateTransform additive="sum" attributeName="transform" dur="45s" from="360 1850 1850" repeatCount="indefinite" to="0 1850 1850" type="rotate" /></image><image clip-path="url(#my_clip_path2)" height="300" id="image78" transform="translate(2000,2300)" width="300" xlink:href="https://elements.stoumann.dk/assets/img/clippath-demo.jpg"><animateTransform additive="sum" attributeName="transform" dur="20s" from="360 1850 2150" repeatCount="indefinite" to="0 1850 2150" type="rotate" /></image><image clip-path="url(#my_clip_path4)" height="300" id="image79" transform="translate(2000,2600)" width="300" xlink:href="https://elements.stoumann.dk/assets/img/clippath-demo.jpg"><animateTransform additive="sum" attributeName="transform" dur="57s" from="360 1850 2450" repeatCount="indefinite" to="0 1850 2450" type="rotate" /></image><image clip-path="url(#my_clip_path13)" height="300" id="image80" transform="translate(2300,-100)" width="300" xlink:href="https://elements.stoumann.dk/assets/img/clippath-demo.jpg"><animateTransform additive="sum" attributeName="transform" dur="20s" from="360 2150 -250" repeatCount="indefinite" to="0 2150 -250" type="rotate" /></image><image clip-path="url(#my_clip_path5)" height="300" id="image81" transform="translate(2300,200)" width="300" xlink:href="https://elements.stoumann.dk/assets/img/clippath-demo.jpg"><animateTransform additive="sum" attributeName="transform" dur="40s" from="360 2150 50" repeatCount="indefinite" to="0 2150 50" type="rotate" /></image><image clip-path="url(#my_clip_path10)" height="300" id="image82" transform="translate(2300,500)" width="300" xlink:href="https://elements.stoumann.dk/assets/img/clippath-demo.jpg"><animateTransform additive="sum" attributeName="transform" dur="29s" from="360 2150 350" repeatCount="indefinite" to="0 2150 350" type="rotate" /></image><image clip-path="url(#my_clip_path13)" height="300" id="image83" transform="translate(2300,800)" width="300" xlink:href="https://elements.stoumann.dk/assets/img/clippath-demo.jpg"><animateTransform additive="sum" attributeName="transform" dur="22s" from="360 2150 650" repeatCount="indefinite" to="0 2150 650" type="rotate" /></image><image clip-path="url(#my_clip_path10)" height="300" id="image84" transform="translate(2300,1100)" width="300" xlink:href="https://elements.stoumann.dk/assets/img/clippath-demo.jpg"><animateTransform additive="sum" attributeName="transform" dur="14s" from="360 2150 950" repeatCount="indefinite" to="0 2150 950" type="rotate" /></image><image clip-path="url(#my_clip_path14)" height="300" id="image85" transform="translate(2300,1400)" width="300" xlink:href="https://elements.stoumann.dk/assets/img/clippath-demo.jpg"><animateTransform additive="sum" attributeName="transform" dur="44s" from="360 2150 1250" repeatCount="indefinite" to="0 2150 1250" type="rotate" /></image><image clip-path="url(#my_clip_path1)" height="300" id="image86" transform="translate(2300,1700)" width="300" xlink:href="https://elements.stoumann.dk/assets/img/clippath-demo.jpg"><animateTransform additive="sum" attributeName="transform" dur="26s" from="360 2150 1550" repeatCount="indefinite" to="0 2150 1550" type="rotate" /></image><image clip-path="url(#my_clip_path6)" height="300" id="image87" transform="translate(2300,2000)" width="300" xlink:href="https://elements.stoumann.dk/assets/img/clippath-demo.jpg"><animateTransform additive="sum" attributeName="transform" dur="48s" from="360 2150 1850" repeatCount="indefinite" to="0 2150 1850" type="rotate" /></image><image clip-path="url(#my_clip_path4)" height="300" id="image88" transform="translate(2300,2300)" width="300" xlink:href="https://elements.stoumann.dk/assets/img/clippath-demo.jpg"><animateTransform additive="sum" attributeName="transform" dur="48s" from="360 2150 2150" repeatCount="indefinite" to="0 2150 2150" type="rotate" /></image><image clip-path="url(#my_clip_path5)" height="300" id="image89" transform="translate(2300,2600)" width="300" xlink:href="https://elements.stoumann.dk/assets/img/clippath-demo.jpg"><animateTransform additive="sum" attributeName="transform" dur="12s" from="360 2150 2450" repeatCount="indefinite" to="0 2150 2450" type="rotate" /></image><image clip-path="url(#my_clip_path10)" height="300" id="image90" transform="translate(2600,-100)" width="300" xlink:href="https://elements.stoumann.dk/assets/img/clippath-demo.jpg"><animateTransform additive="sum" attributeName="transform" dur="37s" from="360 2450 -250" repeatCount="indefinite" to="0 2450 -250" type="rotate" /></image><image clip-path="url(#my_clip_path5)" height="300" id="image91" transform="translate(2600,200)" width="300" xlink:href="https://elements.stoumann.dk/assets/img/clippath-demo.jpg"><animateTransform additive="sum" attributeName="transform" dur="17s" from="360 2450 50" repeatCount="indefinite" to="0 2450 50" type="rotate" /></image><image clip-path="url(#my_clip_path6)" height="300" id="image92" transform="translate(2600,500)" width="300" xlink:href="https://elements.stoumann.dk/assets/img/clippath-demo.jpg"><animateTransform additive="sum" attributeName="transform" dur="35s" from="360 2450 350" repeatCount="indefinite" to="0 2450 350" type="rotate" /></image><image clip-path="url(#my_clip_path6)" height="300" id="image93" transform="translate(2600,800)" width="300" xlink:href="https://elements.stoumann.dk/assets/img/clippath-demo.jpg"><animateTransform additive="sum" attributeName="transform" dur="52s" from="360 2450 650" repeatCount="indefinite" to="0 2450 650" type="rotate" /></image><image clip-path="url(#my_clip_path3)" height="300" id="image94" transform="translate(2600,1100)" width="300" xlink:href="https://elements.stoumann.dk/assets/img/clippath-demo.jpg"><animateTransform additive="sum" attributeName="transform" dur="45s" from="360 2450 950" repeatCount="indefinite" to="0 2450 950" type="rotate" /></image><image clip-path="url(#my_clip_path7)" height="300" id="image95" transform="translate(2600,1400)" width="300" xlink:href="https://elements.stoumann.dk/assets/img/clippath-demo.jpg"><animateTransform additive="sum" attributeName="transform" dur="37s" from="360 2450 1250" repeatCount="indefinite" to="0 2450 1250" type="rotate" /></image><image clip-path="url(#my_clip_path10)" height="300" id="image96" transform="translate(2600,1700)" width="300" xlink:href="https://elements.stoumann.dk/assets/img/clippath-demo.jpg"><animateTransform additive="sum" attributeName="transform" dur="53s" from="360 2450 1550" repeatCount="indefinite" to="0 2450 1550" type="rotate" /></image><image clip-path="url(#my_clip_path13)" height="300" id="image97" transform="translate(2600,2000)" width="300" xlink:href="https://elements.stoumann.dk/assets/img/clippath-demo.jpg"><animateTransform additive="sum" attributeName="transform" dur="15s" from="360 2450 1850" repeatCount="indefinite" to="0 2450 1850" type="rotate" /></image><image clip-path="url(#my_clip_path12)" height="300" id="image98" transform="translate(2600,2300)" width="300" xlink:href="https://elements.stoumann.dk/assets/img/clippath-demo.jpg"><animateTransform additive="sum" attributeName="transform" dur="58s" from="360 2450 2150" repeatCount="indefinite" to="0 2450 2150" type="rotate" /></image><image clip-path="url(#my_clip_path3)" height="300" id="image99" transform="translate(2600,2600)" width="300" xlink:href="https://elements.stoumann.dk/assets/img/clippath-demo.jpg"><animateTransform additive="sum" attributeName="transform" dur="22s" from="360 2450 2450" repeatCount="indefinite" to="0 2450 2450" type="rotate" /></image></svg>