<?xml version="1.0" encoding="utf-8" ?>
<svg baseProfile="full" height="20000" version="1.1" width="20000" xmlns="http://www.w3.org/2000/svg" xmlns:ev="http://www.w3.org/2001/xml-events" xmlns:xlink="http://www.w3.org/1999/xlink"><defs><clipPath clipPathUnits="userSpaceOnUse" id="my_clip_path0"><path d="M152 19C100 7.99998 40 157 40 157C40 157 34 188 8 199C-18 210 33 264 47 267C61 270 68.8985 197.538 88 199C88 199 242 146 230 172C218 198 40 369 88 371C136 373 254 273 257 308C260 343 193.855 433.546 363 388C363 388 516 388 574 345C632 302 650 241 615 172C580 103 551 111 502 114C453 117 522 12 474 14C426 16 444 7.99999 400 1.99999C356 -4.00001 204 30 152 19Z" /></clipPath><clipPath clipPathUnits="userSpaceOnUse" id="my_clip_path1"><path d="M7.99995 21C-27.0001 49 254 269 82 173C-90 77 62.8 321.4 82 391C101.038 460.014 319.278 423.626 398.999 410.334L401 410C479 397 418 99 438 44C458 -11 42.9999 -6.99999 7.99995 21Z" /></clipPath><clipPath clipPathUnits="userSpaceOnUse" id="my_clip_path2"><path d="M4.99999 295C-16 304 46 47 39 31C32 15 12 2 34 2C56 2 78 41 103 26C128 11 139 12 156 2C173 -8 179 59 202 47C225 35 263 53 281 47C299 41 243 102 266 102C289 102 376 85 369 107C362 129 394 263 385 255C376 247 331 271 311 263C291 255 326 323 311 323C296 323 225 317 202 323C179 329 173 291 192 273C211 255 133 225 141 241C149 257 168 331 156 329C144 327 26 286 4.99999 295Z" /></clipPath><clipPath clipPathUnits="userSpaceOnUse" id="my_clip_path3"><path d="M242 12C230 -14 85.7377 7.2854 13 52C-59.7378 96.7146 229.872 374.28 332 346C434.128 317.72 435 250 350 272C265 294 254 38 242 12Z" /></clipPath><clipPath clipPathUnits="userSpaceOnUse" id="my_clip_path4"><path d="M106 30C101 58 18 179 46 167C74 155 114 220 70 225C26 230 -8.00002 285 2.99998 314C14 343 56 390 56 390L138 380C138 380 80 280 121 289C162 298 172 267 193 267C214 267 176.278 248.792 201 234C225.722 219.208 306.678 202.184 316 267C316 267 292 397 324 390C356 383 476 365 488 368C500 371 518 355 488 352C458 349 437 307 451 304C465 301 530 230 570 203C610 176 440.84 176.072 518 120C595.16 63.9279 565.055 -21.7975 464 30C464 30 414 36 400 76C386 116 186 18 162 6C138 -6 111 2.00001 106 30Z" /></clipPath><clipPath clipPathUnits="userSpaceOnUse" id="my_clip_path5"><path d="M140 4.99999C42 -15 -6.00002 35 15 115C36 195 149 206 84 220C19 234 -38 392 36 367C110 342 444 364 488 405C532 446 489 297 570 304C651 311 238 25 140 4.99999Z" /></clipPath><clipPath clipPathUnits="userSpaceOnUse" id="my_clip_path6"><path d="M176 293C143.667 195.667 71.6 40.6 42 199L1 99L51 1L367 30L334 157L380 269L176 293Z" /></clipPath><clipPath clipPathUnits="userSpaceOnUse" id="my_clip_path7"><path d="M65 34C80 45 71 119 44 115C17 111 2 111 1 133C2.86102e-06 155 10 299 38 293C66 287 144 155 165 155C186 155 96 243 123 247C150 251 271 306 293 321C315 336 315 233 340 231C365 229 410 261 423 271C436 281 423 133 401 139C379 145 293 115 303 102C313 89 382 27 396 7C410 -13 50 23 65 34Z" /></clipPath><clipPath clipPathUnits="userSpaceOnUse" id="my_clip_path8"><path d="M150 9C124 14 28 195 12 214C-3.99999 233 -0.999987 246 12 265C25 284 110 265 106 223C102 181 190 294 191 310C192 326 311 286 328 292C345 298 406 186 394 189C382 192 276 148 304 138C332 128 357 1 340 14C323 27 303 27 282 42C261 57 270 -3 254 1C238 5 176 4 150 9Z" /></clipPath><clipPath clipPathUnits="userSpaceOnUse" id="my_clip_path9"><path d="M112 13C75 15 84 88 64 92C44 96 28 124 12 139C-4 154 0 254 12 244C24 234 67 233 80 244C93 255 98 154 119 154C140 154 132 303 158 294C184 285 211 290 230 289C249 288 201 180 191 154C181 128 368 125 388 132C408 139 377 17 366 5.00001C355 -6.99999 149 11 112 13Z" /></clipPath><clipPath clipPathUnits="userSpaceOnUse" id="my_clip_path10"><path d="M106 64C123 64 93 203 106 204C119 205 122 104 135 94C148 84 150 169 158 153C166 137 191 138 203 135C215 132 112 32 140 28C168 24 257 17 267 2C277 -13 380 159 348 153C316 147 136 298 121 318C106 338 41 266 21 272C0.999996 278 -9.00001 64 14 64H106Z" /></clipPath><clipPath clipPathUnits="userSpaceOnUse" id="my_clip_path11"><path d="M44 17C22.4797 105.407 12 169 50 151C88 133 111 159 109 171C107 183 -30 267 7 308C44 349 -0.246674 204.697 368 308C348.801 230.598 65.5203 -71.407 44 17Z" /></clipPath><clipPath clipPathUnits="userSpaceOnUse" id="my_clip_path12"><path d="M13.9999 22C9 43 25.9999 222 43.9999 246C61.9999 270 16.6934 223.281 2.99991 253C-10.6936 282.719 60 308 75.9999 301C91.9998 294 137 243 157 235C177 227 157 322 184 313C211 304 293 282 314 288C335 294 328 260 346 241C364 222 225 125 254 107C283 89.0001 346 22 346 22C-17.8473 -11.4562 18.9998 1.00011 13.9999 22Z" /></clipPath><clipPath clipPathUnits="userSpaceOnUse" id="my_clip_path13"><path d="M233 298C188.612 249.14 66.889 174.784 32 254C-2.889 333.216 -3.99999 242 8 224C20 206 8.00001 55 32 36C56 17 148 -6.61612e-06 193 0.999993C238 1.99999 363 25 385 49C407 73 379.6 108.4 330 198C280.4 287.6 360 206 363 234C366 262 363 312 335 305C307 298 277.388 346.86 233 298Z" /></clipPath><clipPath clipPathUnits="userSpaceOnUse" id="my_clip_path14"><path d="M342 3.99999C304 -1.00002 105 20 56 3.99999C7.00001 -12 -24 44 28 52C80 60 118 124 102 132C86 140 68 155 48 164C28 173 -9 282 28 269C65 256 176 100 194 139C212 178 374 225 406 239C438 253 380 9 342 3.99999Z" /></clipPath><clipPath clipPathUnits="userSpaceOnUse" id="my_clip_path15"><path d="M25 33C-3.99998 47 75 261 25 277C-25 293 14 323 47 304C80 285 131 192 138 227C145 262 163 316 197 314C231 312 234 305 263 277C292 249 218 9.00001 185 2.00001C152 -4.99999 54 19 25 33Z" /></clipPath><clipPath clipPathUnits="userSpaceOnUse" id="my_clip_path16"><path d="M363 15C466.553 -75.4583 363 315 325 297C287 279 209 291 196 271C183 251 162 325 149 324C136 323 155 255 141 271C127 287 41 324 60 297C79 270 82 271 71 263C60 255 41 248 21 243C1.00001 238 49 229 60 216C71 203 -5.99999 193 1.00001 179C8.00001 165 111 119 85 113C59 107 1.00001 134 9.00001 113C17 92 -4.99999 45 21 45C47 45 259.447 105.458 363 15Z" /></clipPath><clipPath clipPathUnits="userSpaceOnUse" id="my_clip_path17"><path d="M46 253C-29 184 2.00001 28 46 19C90 9.99999 263 139 245 70C227 0.999992 300 -10 370 9.99999C440 30 388 304 317 253C246 202 121 322 46 253Z" /></clipPath><clipPath clipPathUnits="userSpaceOnUse" id="my_clip_path18"><path d="M124 20C22 49 22 37 22 85C22 133 -26 183 22 168C70 153 108 239 141 251C174 263 159 175 226 173C293 171 170 289 208 279C246 269 340 265 375 279C410 293 306 106 347 49C388 -8.00001 226 -9.00002 124 20Z" /></clipPath><clipPath clipPathUnits="userSpaceOnUse" id="my_clip_path19"><path d="M187 1C187 1 102 -1 90 7L114 19C114 19 6 33.0002 1 73.0002C-4 113 164 115 114 147C64 179 90 294 158 263C226 232 364 219 366 193C368 167 401 -30 353 19C305 68 187 1 187 1Z" /></clipPath><clipPath clipPathUnits="userSpaceOnUse" id="my_clip_path20"><path d="M49 316C82.011 249.033 149.533 29.5656 56 62C-37.5328 94.4344 7.16021 30.4812 36 27C64.8398 23.5188 398.916 -20.4564 368 14C337.084 48.4564 251 88 308 92C365 96 430 162 401 179C372 196 330 329 289 345C248 361 15.9891 382.967 49 316Z" /></clipPath><clipPath clipPathUnits="userSpaceOnUse" id="my_clip_path21"><path d="M289 23C296.304 111.685 61.0944 98.8392 45 43C28.9056 -12.8392 24 33 11 43C-2.00001 53 4.99999 141 11 163C17 185 100 209 105 230C110 251 30 235 11 238C-8.00002 241 1.99998 373 31 355C60 337 129 413 155 396C181 379 403 371 404 390C405 409 517 341 554 339C591 337 614 213 630 195C646 177 589 84 554 117C519 150 281.696 -65.6853 289 23Z" /></clipPath><clipPath clipPathUnits="userSpaceOnUse" id="my_clip_path22"><path d="M64 41C12 64 48 201 33 217C18 233 -9.99999 223 5.00001 246C20 269 12 296 43 296C74 296 162 356 206 348C250 340 264 312 298 296C332 280 400 318 434 312C468 306 476 284 502 246C528 208 516 98 492 120C468 142 272 103 311 78C350 52.9999 343 36 317 9.99999C291 -16 116 18 64 41Z" /></clipPath><clipPath clipPathUnits="userSpaceOnUse" id="my_clip_path23"><path d="M110 363C49.0002 415 109.26 70.8341 49.0002 68C-11.2597 65.1658 -22.9963 8.76722 62.0002 17C62.0002 17 315 -9.53674e-07 364 0.999999C413 2 475 75 426 68C377 61 264 121 310 145C356 169 463 471 382 407C301 343 171 311 110 363Z" /></clipPath><clipPath clipPathUnits="userSpaceOnUse" id="my_clip_path24"><path d="M191 8.99999C139 23 47 181 20 210C-6.99999 239 -1.99998 266 17 247C36 228 164 179 118 251C72 323 323.446 206.551 343 215C362.554 223.449 377.155 415.776 465 381C465 381 512 28 444 14C376 -1.04904e-05 243 -5.00001 191 8.99999Z" /></clipPath><clipPath clipPathUnits="userSpaceOnUse" id="my_clip_path25"><path d="M319 44C155 107 151 230 87 242C23 254 -30 311 23 294C76 277 183 256 155 285C127 314 99 334 44 364C-11 394 235 407 274 364C313 321 495 134 510 61C525 -12 483 -19 319 44Z" /></clipPath><clipPath clipPathUnits="userSpaceOnUse" id="my_clip_path26"><path d="M41 30C-17 49 -4.99997 231 33 239C71 247 80 207 92 259C104 311 136 302 201 311C266 320 349 327 420 311C491 295 474 103 415 37C356 -29 99 11 41 30Z" /></clipPath><clipPath clipPathUnits="userSpaceOnUse" id="my_clip_path27"><path d="M14 379C118 320 192 93 98 154C4.00003 215 64 61 108 25C152 -11 602 -13 434 70C266 153 669 405 571 372C473 339 -90 438 14 379Z" /></clipPath><clipPath clipPathUnits="userSpaceOnUse" id="my_clip_path28"><path d="M152 392C101 374 28 305 79 204C130 103 65 213 35 213C5.00003 213 -23 98 35 90C93 82 91 110 112 66C133 22 144 16 179 10C214 4 485 -11 435 21C385 53 400 94 379 149C358 204 504 305 435 314C366 323 203 410 152 392Z" /></clipPath><clipPath clipPathUnits="userSpaceOnUse" id="my_clip_path29"><path d="M505 32C430 -17 -3.99999 -13 1.00001 75C6.00001 163 -2.99998 208 89 264C181 320 199 156 241 152C283 148 279 316 367 328C455 340 581.4 235.8 607 135C632.6 34.2 580 81 505 32Z" /></clipPath><clipPath clipPathUnits="userSpaceOnUse" id="my_clip_path30"><path d="M29 367C68 347 50 67 29 113C8 159 -8.00002 147 7.99999 120C24 93 -5.37447 96.3997 24 58C50.8438 22.9086 81 3.00002 112 3.00002C112 3.00002 268 11 330 3.00002C392 -4.99998 241 153 266 145C291 137 497 31 539 3.00002C581 -25 612 225 566 197C520 169 352.6 261.8 227 377C101.4 492.2 -10 387 29 367Z" /></clipPath><clipPath clipPathUnits="userSpaceOnUse" id="my_clip_path31"><path d="M361 286C223.163 391.813 140.197 74.6076 98 60C55.8026 45.3923 -23.36 77.3032 8.99994 44C35.4832 -17.5058 3.83895 39.8826 98 38C192.161 36.1174 240.625 -40.8008 361 32C481.375 104.801 498.837 180.187 361 286Z" /></clipPath><clipPath clipPathUnits="userSpaceOnUse" id="my_clip_path32"><path d="M120 8.00001C89 -9 -31 177 8.99998 162C49 147 191 162 163 200C135 238 140 369 182 356C224 343 326 371 361 379C396 387 326 169 361 177C396 185 359.503 269 396 254C432.497 239 509 254 548 254C587 254 512 162 541 162C570 162 589 86 565 80C541 74 548 -27 502 8.00001C456 43 151 25 120 8.00001Z" /></clipPath><clipPath clipPathUnits="userSpaceOnUse" id="my_clip_path33"><path d="M45.0001 26C-28 53 -0.99995 376 56.0001 348C113 320 65.0001 424 95.0001 412C125 400 228 376 257 359C286 342 168 205 206 204C244 203 241.725 66.1643 267 26C292.275 -14.1643 118 -1.00002 45.0001 26Z" /></clipPath><clipPath clipPathUnits="userSpaceOnUse" id="my_clip_path34"><path d="M150 0.999992C90.9999 14 56 96 58 143C60 190 155 188 114 195C73 202 -30 281 9.99998 288C50 295 460 258 521 249C582 240 209 -12 150 0.999992Z" /></clipPath><clipPath clipPathUnits="userSpaceOnUse" id="my_clip_path35"><path d="M144 11C144 11 100 140 74 139C48 138 56 143 48 203C40 263 86.9216 309.213 14 359C-58.9216 408.787 206 385 223 359C240 333 196 254 196 203C196 152 289 185 326 194C363 203 281 351 314 349C347 347 510 323 544 310C578 297 526 185 550 159C574 133 490 -41 451 11C412 63 144 11 144 11Z" /></clipPath><clipPath clipPathUnits="userSpaceOnUse" id="my_clip_path36"><path d="M29 36C125.556 74.7779 76.2672 153.45 14 224C-48.2672 294.55 134 258 181 224C228 190 316 326 358 317L358.004 316.999C400.005 307.999 484.001 290 510 272C536 254 526.008 110.132 518 44C509.991 -22.1323 -67.5557 -2.77787 29 36Z" /></clipPath><clipPath clipPathUnits="userSpaceOnUse" id="my_clip_path37"><path d="M146 12C55 23 70 176 31 194C-8.00003 212 -11 265 38 247C87 229 320 261 347 273C374 285 417 220 365 187C313 154 451 127 427 154C403 181 427 410 485 419C543 428 553 392 587 337C621 282 661 29 582 12C503 -4.99999 237 1.00002 146 12Z" /></clipPath><clipPath clipPathUnits="userSpaceOnUse" id="my_clip_path38"><path d="M27 87.9999C-7.99999 108 -17.5292 300.801 62 248C99.5014 217.093 58.1189 93.4995 191 225C190.273 275.923 228 253 254 308C280 363 460 286 488 302C516 318 502 187 452 193C402 199 574 60 594 19C614 -22 236 19 191 19C146 19 62 67.9999 27 87.9999Z" /></clipPath><clipPath clipPathUnits="userSpaceOnUse" id="my_clip_path39"><path d="M21 346C-18 292.001 11 203 21 116C31 29.0001 344 -110 253 116C162 342 420 230 262 346C104.505 461.63 60.2827 400.395 21.3745 346.519L21 346Z" /></clipPath><clipPath clipPathUnits="userSpaceOnUse" id="my_clip_path40"><path d="M161 39C106 55 121 117 86 101C51 85 82 111 26 101C-30 91 25 154 26 172C27 190 61 243 78 256C95 269 126 292 148 288C170 284 214 302 252 302C290 302 314 295 322 302C330 309 459 256 380 256C301 256 362 240 416 230C470 220 386 183 422 154C458 125 399 124 422 101C445 78 439.307 60.9887 372 48C304.693 35.0113 326 38 330 18C334 -2.00001 286 -2 252 8C218 18 216 23 161 39Z" /></clipPath><clipPath clipPathUnits="userSpaceOnUse" id="my_clip_path41"><path d="M185 44C105.153 88.0798 -72.3496 184 34 154C140.35 124 247.948 329.547 289 339C330.052 348.453 523.932 113.544 471 44C418.068 -25.5436 264.847 -0.0798073 185 44Z" /></clipPath><clipPath clipPathUnits="userSpaceOnUse" id="my_clip_path42"><path d="M4 126C4 126 -14 272 35 267C84 262 77 319 88 291C99 263 158 257 181 262C204 267 185 181 204 191C223 201 326 255 341 234C356 213 406 140 386 117C366 94 378 1 361 11C344 21 151 174 142 126C133 78 88 0 52 1C16 2 4 126 4 126Z" /></clipPath></defs><rect fill="white" height="100%" width="100%" x="0" y="0" /><image clip-path="url(#my_clip_path15)" height="300" transform="translate(-100,-100)" width="300" xlink:href="https://klike.net/uploads/posts/2019-06/1561182204_1.jpg" /><image clip-path="url(#my_clip_path34)" height="300" transform="translate(-100,200)" width="300" xlink:href="https://klike.net/uploads/posts/2019-06/1561182204_1.jpg" /><image clip-path="url(#my_clip_path1)" height="300" transform="translate(-100,500)" width="300" xlink:href="https://klike.net/uploads/posts/2019-06/1561182204_1.jpg" /><image clip-path="url(#my_clip_path32)" height="300" transform="translate(-100,800)" width="300" xlink:href="https://klike.net/uploads/posts/2019-06/1561182204_1.jpg" /><image clip-path="url(#my_clip_path14)" height="300" transform="translate(-100,1100)" width="300" xlink:href="https://klike.net/uploads/posts/2019-06/1561182204_1.jpg" /><image clip-path="url(#my_clip_path10)" height="300" transform="translate(-100,1400)" width="300" xlink:href="https://klike.net/uploads/posts/2019-06/1561182204_1.jpg" /><image clip-path="url(#my_clip_path9)" height="300" transform="translate(-100,1700)" width="300" xlink:href="https://klike.net/uploads/posts/2019-06/1561182204_1.jpg" /><image clip-path="url(#my_clip_path5)" height="300" transform="translate(-100,2000)" width="300" xlink:href="https://klike.net/uploads/posts/2019-06/1561182204_1.jpg" /><image clip-path="url(#my_clip_path22)" height="300" transform="translate(-100,2300)" width="300" xlink:href="https://klike.net/uploads/posts/2019-06/1561182204_1.jpg" /><image clip-path="url(#my_clip_path34)" height="300" transform="translate(-100,2600)" width="300" xlink:href="https://klike.net/uploads/posts/2019-06/1561182204_1.jpg" /><image clip-path="url(#my_clip_path35)" height="300" transform="translate(200,-100)" width="300" xlink:href="https://klike.net/uploads/posts/2019-06/1561182204_1.jpg" /><image clip-path="url(#my_clip_path4)" height="300" transform="translate(200,200)" width="300" xlink:href="https://klike.net/uploads/posts/2019-06/1561182204_1.jpg" /><image clip-path="url(#my_clip_path5)" height="300" transform="translate(200,500)" width="300" xlink:href="https://klike.net/uploads/posts/2019-06/1561182204_1.jpg" /><image clip-path="url(#my_clip_path17)" height="300" transform="translate(200,800)" width="300" xlink:href="https://klike.net/uploads/posts/2019-06/1561182204_1.jpg" /><image clip-path="url(#my_clip_path23)" height="300" transform="translate(200,1100)" width="300" xlink:href="https://klike.net/uploads/posts/2019-06/1561182204_1.jpg" /><image clip-path="url(#my_clip_path41)" height="300" transform="translate(200,1400)" width="300" xlink:href="https://klike.net/uploads/posts/2019-06/1561182204_1.jpg" /><image clip-path="url(#my_clip_path10)" height="300" transform="translate(200,1700)" width="300" xlink:href="https://klike.net/uploads/posts/2019-06/1561182204_1.jpg" /><image clip-path="url(#my_clip_path40)" height="300" transform="translate(200,2000)" width="300" xlink:href="https://klike.net/uploads/posts/2019-06/1561182204_1.jpg" /><image clip-path="url(#my_clip_path14)" height="300" transform="translate(200,2300)" width="300" xlink:href="https://klike.net/uploads/posts/2019-06/1561182204_1.jpg" /><image clip-path="url(#my_clip_path17)" height="300" transform="translate(200,2600)" width="300" xlink:href="https://klike.net/uploads/posts/2019-06/1561182204_1.jpg" /><image clip-path="url(#my_clip_path13)" height="300" transform="translate(500,-100)" width="300" xlink:href="https://klike.net/uploads/posts/2019-06/1561182204_1.jpg" /><image clip-path="url(#my_clip_path9)" height="300" transform="translate(500,200)" width="300" xlink:href="https://klike.net/uploads/posts/2019-06/1561182204_1.jpg" /><image clip-path="url(#my_clip_path35)" height="300" transform="translate(500,500)" width="300" xlink:href="https://klike.net/uploads/posts/2019-06/1561182204_1.jpg" /><image clip-path="url(#my_clip_path23)" height="300" transform="translate(500,800)" width="300" xlink:href="https://klike.net/uploads/posts/2019-06/1561182204_1.jpg" /><image clip-path="url(#my_clip_path5)" height="300" transform="translate(500,1100)" width="300" xlink:href="https://klike.net/uploads/posts/2019-06/1561182204_1.jpg" /><image clip-path="url(#my_clip_path40)" height="300" transform="translate(500,1400)" width="300" xlink:href="https://klike.net/uploads/posts/2019-06/1561182204_1.jpg" /><image clip-path="url(#my_clip_path24)" height="300" transform="translate(500,1700)" width="300" xlink:href="https://klike.net/uploads/posts/2019-06/1561182204_1.jpg" /><image clip-path="url(#my_clip_path35)" height="300" transform="translate(500,2000)" width="300" xlink:href="https://klike.net/uploads/posts/2019-06/1561182204_1.jpg" /><image clip-path="url(#my_clip_path41)" height="300" transform="translate(500,2300)" width="300" xlink:href="https://klike.net/uploads/posts/2019-06/1561182204_1.jpg" /><image clip-path="url(#my_clip_path27)" height="300" transform="translate(500,2600)" width="300" xlink:href="https://klike.net/uploads/posts/2019-06/1561182204_1.jpg" /><image clip-path="url(#my_clip_path16)" height="300" transform="translate(800,-100)" width="300" xlink:href="https://klike.net/uploads/posts/2019-06/1561182204_1.jpg" /><image clip-path="url(#my_clip_path40)" height="300" transform="translate(800,200)" width="300" xlink:href="https://klike.net/uploads/posts/2019-06/1561182204_1.jpg" /><image clip-path="url(#my_clip_path10)" height="300" transform="translate(800,500)" width="300" xlink:href="https://klike.net/uploads/posts/2019-06/1561182204_1.jpg" /><image clip-path="url(#my_clip_path1)" height="300" transform="translate(800,800)" width="300" xlink:href="https://klike.net/uploads/posts/2019-06/1561182204_1.jpg" /><image clip-path="url(#my_clip_path15)" height="300" transform="translate(800,1100)" width="300" xlink:href="https://klike.net/uploads/posts/2019-06/1561182204_1.jpg" /><image clip-path="url(#my_clip_path5)" height="300" transform="translate(800,1400)" width="300" xlink:href="https://klike.net/uploads/posts/2019-06/1561182204_1.jpg" /><image clip-path="url(#my_clip_path8)" height="300" transform="translate(800,1700)" width="300" xlink:href="https://klike.net/uploads/posts/2019-06/1561182204_1.jpg" /><image clip-path="url(#my_clip_path33)" height="300" transform="translate(800,2000)" width="300" xlink:href="https://klike.net/uploads/posts/2019-06/1561182204_1.jpg" /><image clip-path="url(#my_clip_path19)" height="300" transform="translate(800,2300)" width="300" xlink:href="https://klike.net/uploads/posts/2019-06/1561182204_1.jpg" /><image clip-path="url(#my_clip_path33)" height="300" transform="translate(800,2600)" width="300" xlink:href="https://klike.net/uploads/posts/2019-06/1561182204_1.jpg" /><image clip-path="url(#my_clip_path14)" height="300" transform="translate(1100,-100)" width="300" xlink:href="https://klike.net/uploads/posts/2019-06/1561182204_1.jpg" /><image clip-path="url(#my_clip_path37)" height="300" transform="translate(1100,200)" width="300" xlink:href="https://klike.net/uploads/posts/2019-06/1561182204_1.jpg" /><image clip-path="url(#my_clip_path4)" height="300" transform="translate(1100,500)" width="300" xlink:href="https://klike.net/uploads/posts/2019-06/1561182204_1.jpg" /><image clip-path="url(#my_clip_path2)" height="300" transform="translate(1100,800)" width="300" xlink:href="https://klike.net/uploads/posts/2019-06/1561182204_1.jpg" /><image clip-path="url(#my_clip_path17)" height="300" transform="translate(1100,1100)" width="300" xlink:href="https://klike.net/uploads/posts/2019-06/1561182204_1.jpg" /><image clip-path="url(#my_clip_path36)" height="300" transform="translate(1100,1400)" width="300" xlink:href="https://klike.net/uploads/posts/2019-06/1561182204_1.jpg" /><image clip-path="url(#my_clip_path26)" height="300" transform="translate(1100,1700)" width="300" xlink:href="https://klike.net/uploads/posts/2019-06/1561182204_1.jpg" /><image clip-path="url(#my_clip_path42)" height="300" transform="translate(1100,2000)" width="300" xlink:href="https://klike.net/uploads/posts/2019-06/1561182204_1.jpg" /><image clip-path="url(#my_clip_path26)" height="300" transform="translate(1100,2300)" width="300" xlink:href="https://klike.net/uploads/posts/2019-06/1561182204_1.jpg" /><image clip-path="url(#my_clip_path3)" height="300" transform="translate(1100,2600)" width="300" xlink:href="https://klike.net/uploads/posts/2019-06/1561182204_1.jpg" /><image clip-path="url(#my_clip_path15)" height="300" transform="translate(1400,-100)" width="300" xlink:href="https://klike.net/uploads/posts/2019-06/1561182204_1.jpg" /><image clip-path="url(#my_clip_path8)" height="300" transform="translate(1400,200)" width="300" xlink:href="https://klike.net/uploads/posts/2019-06/1561182204_1.jpg" /><image clip-path="url(#my_clip_path29)" height="300" transform="translate(1400,500)" width="300" xlink:href="https://klike.net/uploads/posts/2019-06/1561182204_1.jpg" /><image clip-path="url(#my_clip_path35)" height="300" transform="translate(1400,800)" width="300" xlink:href="https://klike.net/uploads/posts/2019-06/1561182204_1.jpg" /><image clip-path="url(#my_clip_path5)" height="300" transform="translate(1400,1100)" width="300" xlink:href="https://klike.net/uploads/posts/2019-06/1561182204_1.jpg" /><image clip-path="url(#my_clip_path31)" height="300" transform="translate(1400,1400)" width="300" xlink:href="https://klike.net/uploads/posts/2019-06/1561182204_1.jpg" /><image clip-path="url(#my_clip_path3)" height="300" transform="translate(1400,1700)" width="300" xlink:href="https://klike.net/uploads/posts/2019-06/1561182204_1.jpg" /><image clip-path="url(#my_clip_path24)" height="300" transform="translate(1400,2000)" width="300" xlink:href="https://klike.net/uploads/posts/2019-06/1561182204_1.jpg" /><image clip-path="url(#my_clip_path27)" height="300" transform="translate(1400,2300)" width="300" xlink:href="https://klike.net/uploads/posts/2019-06/1561182204_1.jpg" /><image clip-path="url(#my_clip_path18)" height="300" transform="translate(1400,2600)" width="300" xlink:href="https://klike.net/uploads/posts/2019-06/1561182204_1.jpg" /><image clip-path="url(#my_clip_path20)" height="300" transform="translate(1700,-100)" width="300" xlink:href="https://klike.net/uploads/posts/2019-06/1561182204_1.jpg" /><image clip-path="url(#my_clip_path32)" height="300" transform="translate(1700,200)" width="300" xlink:href="https://klike.net/uploads/posts/2019-06/1561182204_1.jpg" /><image clip-path="url(#my_clip_path11)" height="300" transform="translate(1700,500)" width="300" xlink:href="https://klike.net/uploads/posts/2019-06/1561182204_1.jpg" /><image clip-path="url(#my_clip_path25)" height="300" transform="translate(1700,800)" width="300" xlink:href="https://klike.net/uploads/posts/2019-06/1561182204_1.jpg" /><image clip-path="url(#my_clip_path39)" height="300" transform="translate(1700,1100)" width="300" xlink:href="https://klike.net/uploads/posts/2019-06/1561182204_1.jpg" /><image clip-path="url(#my_clip_path16)" height="300" transform="translate(1700,1400)" width="300" xlink:href="https://klike.net/uploads/posts/2019-06/1561182204_1.jpg" /><image clip-path="url(#my_clip_path16)" height="300" transform="translate(1700,1700)" width="300" xlink:href="https://klike.net/uploads/posts/2019-06/1561182204_1.jpg" /><image clip-path="url(#my_clip_path29)" height="300" transform="translate(1700,2000)" width="300" xlink:href="https://klike.net/uploads/posts/2019-06/1561182204_1.jpg" /><image clip-path="url(#my_clip_path29)" height="300" transform="translate(1700,2300)" width="300" xlink:href="https://klike.net/uploads/posts/2019-06/1561182204_1.jpg" /><image clip-path="url(#my_clip_path32)" height="300" transform="translate(1700,2600)" width="300" xlink:href="https://klike.net/uploads/posts/2019-06/1561182204_1.jpg" /><image clip-path="url(#my_clip_path4)" height="300" transform="translate(2000,-100)" width="300" xlink:href="https://klike.net/uploads/posts/2019-06/1561182204_1.jpg" /><image clip-path="url(#my_clip_path10)" height="300" transform="translate(2000,200)" width="300" xlink:href="https://klike.net/uploads/posts/2019-06/1561182204_1.jpg" /><image clip-path="url(#my_clip_path42)" height="300" transform="translate(2000,500)" width="300" xlink:href="https://klike.net/uploads/posts/2019-06/1561182204_1.jpg" /><image clip-path="url(#my_clip_path16)" height="300" transform="translate(2000,800)" width="300" xlink:href="https://klike.net/uploads/posts/2019-06/1561182204_1.jpg" /><image clip-path="url(#my_clip_path17)" height="300" transform="translate(2000,1100)" width="300" xlink:href="https://klike.net/uploads/posts/2019-06/1561182204_1.jpg" /><image clip-path="url(#my_clip_path13)" height="300" transform="translate(2000,1400)" width="300" xlink:href="https://klike.net/uploads/posts/2019-06/1561182204_1.jpg" /><image clip-path="url(#my_clip_path3)" height="300" transform="translate(2000,1700)" width="300" xlink:href="https://klike.net/uploads/posts/2019-06/1561182204_1.jpg" /><image clip-path="url(#my_clip_path2)" height="300" transform="translate(2000,2000)" width="300" xlink:href="https://klike.net/uploads/posts/2019-06/1561182204_1.jpg" /><image clip-path="url(#my_clip_path40)" height="300" transform="translate(2000,2300)" width="300" xlink:href="https://klike.net/uploads/posts/2019-06/1561182204_1.jpg" /><image clip-path="url(#my_clip_path35)" height="300" transform="translate(2000,2600)" width="300" xlink:href="https://klike.net/uploads/posts/2019-06/1561182204_1.jpg" /><image clip-path="url(#my_clip_path4)" height="300" transform="translate(2300,-100)" width="300" xlink:href="https://klike.net/uploads/posts/2019-06/1561182204_1.jpg" /><image clip-path="url(#my_clip_path37)" height="300" transform="translate(2300,200)" width="300" xlink:href="https://klike.net/uploads/posts/2019-06/1561182204_1.jpg" /><image clip-path="url(#my_clip_path2)" height="300" transform="translate(2300,500)" width="300" xlink:href="https://klike.net/uploads/posts/2019-06/1561182204_1.jpg" /><image clip-path="url(#my_clip_path22)" height="300" transform="translate(2300,800)" width="300" xlink:href="https://klike.net/uploads/posts/2019-06/1561182204_1.jpg" /><image clip-path="url(#my_clip_path22)" height="300" transform="translate(2300,1100)" width="300" xlink:href="https://klike.net/uploads/posts/2019-06/1561182204_1.jpg" /><image clip-path="url(#my_clip_path10)" height="300" transform="translate(2300,1400)" width="300" xlink:href="https://klike.net/uploads/posts/2019-06/1561182204_1.jpg" /><image clip-path="url(#my_clip_path11)" height="300" transform="translate(2300,1700)" width="300" xlink:href="https://klike.net/uploads/posts/2019-06/1561182204_1.jpg" /><image clip-path="url(#my_clip_path17)" height="300" transform="translate(2300,2000)" width="300" xlink:href="https://klike.net/uploads/posts/2019-06/1561182204_1.jpg" /><image clip-path="url(#my_clip_path2)" height="300" transform="translate(2300,2300)" width="300" xlink:href="https://klike.net/uploads/posts/2019-06/1561182204_1.jpg" /><image clip-path="url(#my_clip_path29)" height="300" transform="translate(2300,2600)" width="300" xlink:href="https://klike.net/uploads/posts/2019-06/1561182204_1.jpg" /><image clip-path="url(#my_clip_path14)" height="300" transform="translate(2600,-100)" width="300" xlink:href="https://klike.net/uploads/posts/2019-06/1561182204_1.jpg" /><image clip-path="url(#my_clip_path21)" height="300" transform="translate(2600,200)" width="300" xlink:href="https://klike.net/uploads/posts/2019-06/1561182204_1.jpg" /><image clip-path="url(#my_clip_path22)" height="300" transform="translate(2600,500)" width="300" xlink:href="https://klike.net/uploads/posts/2019-06/1561182204_1.jpg" /><image clip-path="url(#my_clip_path7)" height="300" transform="translate(2600,800)" width="300" xlink:href="https://klike.net/uploads/posts/2019-06/1561182204_1.jpg" /><image clip-path="url(#my_clip_path2)" height="300" transform="translate(2600,1100)" width="300" xlink:href="https://klike.net/uploads/posts/2019-06/1561182204_1.jpg" /><image clip-path="url(#my_clip_path20)" height="300" transform="translate(2600,1400)" width="300" xlink:href="https://klike.net/uploads/posts/2019-06/1561182204_1.jpg" /><image clip-path="url(#my_clip_path36)" height="300" transform="translate(2600,1700)" width="300" xlink:href="https://klike.net/uploads/posts/2019-06/1561182204_1.jpg" /><image clip-path="url(#my_clip_path27)" height="300" transform="translate(2600,2000)" width="300" xlink:href="https://klike.net/uploads/posts/2019-06/1561182204_1.jpg" /><image clip-path="url(#my_clip_path27)" height="300" transform="translate(2600,2300)" width="300" xlink:href="https://klike.net/uploads/posts/2019-06/1561182204_1.jpg" /><image clip-path="url(#my_clip_path42)" height="300" transform="translate(2600,2600)" width="300" xlink:href="https://klike.net/uploads/posts/2019-06/1561182204_1.jpg" /></svg>
